<svg width="176" height="32" viewBox="0 0 176 32" fill="none" xmlns="http://www.w3.org/2000/svg">
<rect x="0.391846" y="0.0773926" width="175.295" height="31.3647" fill="#FF9595"/>
<path d="M39.5369 20.3442C38.9353 20.3442 38.3702 20.2257 37.8415 19.9888C37.322 19.7518 36.8617 19.4282 36.4607 19.0181C36.0688 18.6079 35.7589 18.134 35.531 17.5962C35.3122 17.0493 35.2029 16.4705 35.2029 15.8599C35.2029 15.2127 35.3168 14.6066 35.5447 14.0415C35.7725 13.4673 36.0915 12.966 36.5017 12.5376C36.9119 12.1001 37.3858 11.7583 37.9236 11.5122C38.4705 11.2661 39.0583 11.1431 39.6872 11.1431C40.225 11.1431 40.7719 11.1704 41.3279 11.2251C41.8839 11.2798 42.4444 11.3664 43.0095 11.4849L42.9822 13.4536C42.9822 13.5903 42.8865 13.6587 42.6951 13.6587C42.6039 13.6587 42.5447 13.6359 42.5173 13.5903C42.49 13.4718 42.4535 13.3534 42.408 13.2349C42.3715 13.1073 42.2895 12.9432 42.1619 12.7427C41.9431 12.4237 41.6287 12.173 41.2185 11.9907C40.8175 11.8084 40.3207 11.7173 39.7283 11.7173C39.2816 11.7173 38.8624 11.8267 38.4705 12.0454C38.0785 12.255 37.7322 12.5422 37.4314 12.9067C37.1397 13.2713 36.9119 13.686 36.7478 14.1509C36.5837 14.6066 36.5017 15.0806 36.5017 15.5728C36.5017 16.3293 36.6293 17.0083 36.8845 17.6099C37.1397 18.2297 37.5408 18.7446 38.0876 19.1548C38.6436 19.5558 39.2999 19.7563 40.0564 19.7563C40.9587 19.7563 41.656 19.492 42.1482 18.9634C42.294 18.8084 42.408 18.6261 42.49 18.4165C42.572 18.2069 42.6358 18.0246 42.6814 17.8696C42.727 17.7147 42.7725 17.6372 42.8181 17.6372C42.8728 17.6372 42.9366 17.6463 43.0095 17.6646C43.0915 17.6737 43.1553 17.6919 43.2009 17.7192L43.2693 17.7603C43.2693 17.8149 43.2511 17.9425 43.2146 18.1431C43.1781 18.3436 43.1326 18.5669 43.0779 18.813C43.0232 19.05 42.9685 19.2596 42.9138 19.4419C42.8682 19.6242 42.8318 19.7244 42.8044 19.7427C42.13 20.1437 41.0408 20.3442 39.5369 20.3442ZM45.4568 19.0454C44.6 18.1522 44.1716 17.063 44.1716 15.7778C44.1716 15.1398 44.2856 14.5428 44.5134 13.9868C44.7413 13.4217 45.0512 12.9295 45.4431 12.5103C45.8441 12.0819 46.309 11.7492 46.8376 11.5122C47.3663 11.2661 47.9314 11.1431 48.533 11.1431C49.1345 11.1431 49.6996 11.2661 50.2283 11.5122C50.7569 11.7492 51.2218 12.0819 51.6228 12.5103C52.0238 12.9295 52.3383 13.4217 52.5662 13.9868C52.794 14.5428 52.908 15.1398 52.908 15.7778C52.908 17.063 52.4796 18.1522 51.6228 19.0454C51.0395 19.6652 50.3787 20.0754 49.6404 20.2759C48.9021 20.4855 48.1638 20.4855 47.4255 20.2759C46.6964 20.0754 46.0401 19.6652 45.4568 19.0454ZM48.7517 19.811C49.335 19.811 49.8455 19.6196 50.283 19.2368C50.7205 18.8631 51.0395 18.3983 51.24 17.8423C51.4496 17.2772 51.5544 16.6756 51.5544 16.0376C51.5544 15.3175 51.4359 14.6294 51.199 13.9731C50.962 13.326 50.5928 12.7882 50.0915 12.3599C49.5902 11.9315 49.0024 11.7173 48.3279 11.7173C47.7537 11.7173 47.2569 11.895 46.8376 12.2505C46.4184 12.5968 46.0948 13.0571 45.8669 13.6313C45.6391 14.1965 45.5251 14.8117 45.5251 15.4771C45.5251 16.1971 45.6436 16.8853 45.8806 17.5415C46.1176 18.1886 46.4867 18.731 46.988 19.1685C47.4893 19.5968 48.0772 19.811 48.7517 19.811ZM53.947 20.3032C53.9014 20.2576 53.8787 20.1893 53.8787 20.0981C53.8787 19.9705 53.9014 19.9067 53.947 19.9067C54.0382 19.9067 54.1566 19.8931 54.3025 19.8657C54.4483 19.8384 54.5896 19.8019 54.7263 19.7563C54.863 19.7108 54.9587 19.6606 55.0134 19.606C55.1684 19.4419 55.2504 19.0454 55.2595 18.4165C55.2777 17.3592 55.296 16.4113 55.3142 15.5728C55.3415 14.7251 55.3643 14.0324 55.3826 13.4946C55.4008 12.9478 55.4099 12.5968 55.4099 12.4419C55.4099 12.1958 55.3917 12.0135 55.3552 11.895C55.337 11.8403 55.255 11.7948 55.1091 11.7583C54.9724 11.7127 54.822 11.6763 54.658 11.6489C54.4939 11.6216 54.3663 11.6079 54.2751 11.6079C54.2387 11.6079 54.2205 11.5441 54.2205 11.4165C54.2205 11.3162 54.2387 11.2479 54.2751 11.2114C54.4939 11.2205 54.7354 11.2342 54.9997 11.2524C55.2641 11.2707 55.533 11.2798 55.8064 11.2798C55.9796 11.2798 56.1664 11.2752 56.3669 11.2661C56.5766 11.2479 56.809 11.2297 57.0642 11.2114C57.1371 11.4119 58.0395 13.6951 59.7712 18.061C59.7895 18.0793 59.8077 18.0884 59.8259 18.0884C59.8624 18.0884 59.8852 18.0701 59.8943 18.0337C60.3409 16.9855 60.7419 16.0285 61.0974 15.1626C61.4529 14.2967 61.7628 13.5265 62.0271 12.8521L62.574 11.2114C62.8656 11.2297 63.1026 11.2433 63.2849 11.2524C63.4763 11.2616 63.6176 11.2661 63.7087 11.2661C63.9913 11.2661 64.2602 11.2616 64.5154 11.2524C64.7706 11.2433 65.0121 11.2297 65.24 11.2114C65.2673 11.2935 65.281 11.3618 65.281 11.4165C65.281 11.5441 65.2582 11.6079 65.2126 11.6079H65.1853C65.085 11.6079 64.9529 11.6398 64.7888 11.7036C64.6247 11.7583 64.5017 11.8175 64.4197 11.8813C64.3103 11.9634 64.2556 12.2687 64.2556 12.7974L64.3787 18.3481C64.3969 18.8768 64.4652 19.2961 64.5837 19.606C64.6111 19.6606 64.684 19.7108 64.8025 19.7563C64.921 19.8019 65.0486 19.8384 65.1853 19.8657C65.3311 19.8931 65.4359 19.9067 65.4997 19.9067C65.5362 19.9067 65.5544 19.9705 65.5544 20.0981C65.5544 20.1619 65.5453 20.2303 65.5271 20.3032C65.0714 20.285 64.7068 20.2713 64.4333 20.2622C64.169 20.244 63.9913 20.2349 63.9001 20.2349L62.2595 20.3032C62.2231 20.2668 62.2048 20.1938 62.2048 20.0845C62.2048 19.966 62.2231 19.9067 62.2595 19.9067C62.3507 19.9067 62.4874 19.884 62.6697 19.8384C62.8611 19.7928 62.9978 19.7472 63.0798 19.7017C63.1892 19.6287 63.2439 19.4328 63.2439 19.1138V18.3892L63.0798 13.5767C63.0798 13.4764 63.0662 13.367 63.0388 13.2485C63.0206 13.1209 62.9978 13.0116 62.9705 12.9204C62.9431 12.8201 62.9112 12.77 62.8747 12.77C62.8565 12.77 62.8337 12.8019 62.8064 12.8657L59.949 19.7017C59.7758 20.0936 59.6072 20.2896 59.4431 20.2896C59.434 20.2896 59.393 20.2804 59.3201 20.2622L56.1892 12.3052C56.1619 13.5903 56.13 14.7388 56.0935 15.7505C56.057 16.7531 56.0251 17.5597 55.9978 18.1704C55.9796 18.7811 55.9705 19.1366 55.9705 19.2368C55.9705 19.4009 55.9978 19.5194 56.0525 19.5923C56.0889 19.6379 56.1801 19.688 56.3259 19.7427C56.4718 19.7882 56.6221 19.8293 56.7771 19.8657C56.9412 19.8931 57.0505 19.9067 57.1052 19.9067C57.1417 19.9067 57.1599 19.9751 57.1599 20.1118C57.1599 20.1665 57.1508 20.2303 57.1326 20.3032C56.6768 20.285 56.3168 20.2713 56.0525 20.2622C55.7882 20.244 55.6195 20.2349 55.5466 20.2349L53.947 20.3032ZM66.5388 20.3032C66.5024 20.2668 66.4841 20.1984 66.4841 20.0981C66.4841 19.9705 66.5024 19.9067 66.5388 19.9067C66.6208 19.9067 66.7302 19.8976 66.8669 19.8794C67.0037 19.8521 67.1313 19.8156 67.2497 19.77C67.3682 19.7244 67.4366 19.6789 67.4548 19.6333C67.4913 19.5057 67.5141 19.3416 67.5232 19.1411C67.5414 18.9406 67.5505 18.6991 67.5505 18.4165V13.1118C67.5505 12.8293 67.5414 12.5877 67.5232 12.3872C67.5141 12.1776 67.4913 12.0135 67.4548 11.895C67.4366 11.8403 67.3682 11.7948 67.2497 11.7583C67.1313 11.7127 67.0037 11.6763 66.8669 11.6489C66.7302 11.6216 66.6208 11.6079 66.5388 11.6079C66.5024 11.6079 66.4841 11.5487 66.4841 11.4302C66.4841 11.3208 66.5024 11.2479 66.5388 11.2114L68.1794 11.2798C68.2524 11.2798 68.421 11.2752 68.6853 11.2661C68.9496 11.2479 69.3096 11.2297 69.7654 11.2114C69.7836 11.2843 69.7927 11.3527 69.7927 11.4165C69.7927 11.5441 69.7745 11.6079 69.738 11.6079C69.6833 11.6079 69.5876 11.6261 69.4509 11.6626C69.3142 11.6899 69.1866 11.7264 69.0681 11.772C68.9496 11.8084 68.8813 11.8494 68.863 11.895C68.781 12.2049 68.74 12.6287 68.74 13.1665V18.3618C68.74 18.8905 68.781 19.3143 68.863 19.6333C68.8813 19.6698 68.9496 19.7108 69.0681 19.7563C69.1866 19.8019 69.3142 19.8384 69.4509 19.8657C69.5876 19.8931 69.6833 19.9067 69.738 19.9067C69.7745 19.9067 69.7927 19.9751 69.7927 20.1118C69.7927 20.1665 69.7836 20.2303 69.7654 20.3032C69.3096 20.285 68.9496 20.2713 68.6853 20.2622C68.421 20.244 68.2524 20.2349 68.1794 20.2349L66.5388 20.3032ZM78.3787 20.3306C78.2328 20.3306 78.0824 20.2257 77.9275 20.0161L72.6228 12.4966V18.3345C72.6228 18.9543 72.6547 19.3781 72.7185 19.606C72.7367 19.6424 72.8142 19.688 72.9509 19.7427C73.0968 19.7882 73.2517 19.8293 73.4158 19.8657C73.5798 19.8931 73.6892 19.9067 73.7439 19.9067C73.7712 19.9067 73.7849 19.9614 73.7849 20.0708C73.794 20.1802 73.7895 20.2576 73.7712 20.3032C73.3155 20.285 72.9555 20.2713 72.6912 20.2622C72.4359 20.244 72.2719 20.2349 72.199 20.2349L70.6267 20.3032C70.5994 20.2759 70.5857 20.2075 70.5857 20.0981C70.5857 19.9705 70.5994 19.9067 70.6267 19.9067C70.7178 19.9067 70.8455 19.8931 71.0095 19.8657C71.1736 19.8293 71.3285 19.7882 71.4744 19.7427C71.6202 19.688 71.7022 19.6333 71.7205 19.5786C71.8116 19.3599 71.8572 18.9315 71.8572 18.2935V12.9204C71.8572 12.4556 71.8253 12.1138 71.7615 11.895C71.7432 11.8403 71.6612 11.7948 71.5154 11.7583C71.3787 11.7127 71.2283 11.6763 71.0642 11.6489C70.9001 11.6216 70.7725 11.6079 70.6814 11.6079C70.6449 11.6079 70.6267 11.5487 70.6267 11.4302C70.6267 11.3208 70.6449 11.2479 70.6814 11.2114C71.0369 11.2205 71.3285 11.2297 71.5564 11.2388C71.7934 11.2388 71.9665 11.2388 72.0759 11.2388C72.3129 11.2388 72.5225 11.2388 72.7048 11.2388C72.8871 11.2297 73.0421 11.2205 73.1697 11.2114C73.3428 11.5213 73.8122 12.2368 74.5779 13.3579C75.3526 14.4699 76.4281 15.9875 77.8044 17.9106C77.8318 17.7557 77.8455 17.5688 77.8455 17.3501V13.0981C77.8455 12.5239 77.8136 12.1229 77.7497 11.895C77.7315 11.8403 77.6495 11.7902 77.5037 11.7446C77.3578 11.6991 77.2029 11.6626 77.0388 11.6353C76.8747 11.5988 76.7517 11.5806 76.6697 11.5806C76.6332 11.5806 76.615 11.5259 76.615 11.4165C76.615 11.3162 76.6332 11.2479 76.6697 11.2114C76.7517 11.2114 76.8884 11.2205 77.0798 11.2388C77.2712 11.2479 77.4763 11.2616 77.6951 11.2798C77.9229 11.2889 78.1189 11.2935 78.283 11.2935C78.5199 11.2935 78.8207 11.2798 79.1853 11.2524C79.5408 11.2251 79.7504 11.2114 79.8142 11.2114C79.8324 11.2843 79.8415 11.3527 79.8415 11.4165C79.8415 11.5259 79.8233 11.5806 79.7869 11.5806C79.7322 11.5806 79.6182 11.5988 79.4451 11.6353C79.2719 11.6717 79.1078 11.7127 78.9529 11.7583C78.807 11.8039 78.725 11.8494 78.7068 11.895C78.6703 12.0409 78.643 12.2186 78.6247 12.4282C78.6065 12.6379 78.5974 12.884 78.5974 13.1665V18.3618C78.5974 18.9269 78.6111 19.5649 78.6384 20.2759C78.602 20.3123 78.5154 20.3306 78.3787 20.3306ZM85.1052 20.3442C84.5037 20.3442 83.9386 20.2257 83.4099 19.9888C82.8904 19.7518 82.4301 19.4282 82.029 19.0181C81.6371 18.6079 81.3272 18.134 81.0994 17.5962C80.8806 17.0493 80.7712 16.4705 80.7712 15.8599C80.7712 15.2127 80.8852 14.6066 81.113 14.0415C81.3409 13.4673 81.6599 12.966 82.0701 12.5376C82.4802 12.1001 82.9542 11.7583 83.4919 11.5122C84.0388 11.2661 84.6267 11.1431 85.2556 11.1431C85.9027 11.1431 86.9828 11.3481 88.4958 11.7583L88.5505 13.4536C88.5505 13.5903 88.4548 13.6587 88.2634 13.6587C88.1723 13.6587 88.113 13.6359 88.0857 13.5903C87.8396 12.3416 86.9099 11.7173 85.2966 11.7173C84.6951 11.7173 84.1527 11.895 83.6697 12.2505C83.1866 12.606 82.8038 13.0845 82.5212 13.686C82.2387 14.2876 82.0974 14.953 82.0974 15.6821C82.0974 16.1834 82.184 16.6802 82.3572 17.1724C82.5395 17.6554 82.7856 18.0929 83.0955 18.4849C83.4145 18.8677 83.7882 19.1776 84.2165 19.4146C84.654 19.6424 85.1234 19.7563 85.6247 19.7563C86.4359 19.7563 87.0284 19.6561 87.4021 19.4556C87.4659 19.4282 87.4978 19.3599 87.4978 19.2505L87.4841 18.1294V18.0337C87.4841 17.4504 87.4477 17.0584 87.3747 16.8579C87.3565 16.7941 87.279 16.744 87.1423 16.7075C87.0056 16.6619 86.8598 16.6255 86.7048 16.5981C86.5499 16.5708 86.4223 16.5571 86.322 16.5571C86.2856 16.5571 86.2673 16.4979 86.2673 16.3794C86.2673 16.27 86.2856 16.1971 86.322 16.1606L88.113 16.229L89.5896 16.1606C89.6078 16.2336 89.6169 16.2974 89.6169 16.3521C89.6169 16.4888 89.5987 16.5571 89.5622 16.5571C89.5258 16.5571 89.4529 16.5708 89.3435 16.5981C89.2432 16.6255 89.1339 16.6574 89.0154 16.6938C88.906 16.7303 88.824 16.7668 88.7693 16.8032C88.6781 16.867 88.6326 17.1724 88.6326 17.7192C88.6326 17.8104 88.6326 17.9106 88.6326 18.02C88.6417 18.1203 88.6508 18.2251 88.6599 18.3345L88.6736 18.7036C88.6736 18.8859 88.7055 19.0454 88.7693 19.1821C88.8331 19.3188 88.865 19.41 88.865 19.4556C88.865 19.5285 88.7511 19.6105 88.5232 19.7017C88.3774 19.7746 88.2543 19.8247 88.154 19.8521C88.0538 19.8794 87.9854 19.9022 87.949 19.9204C87.9034 19.9386 87.8031 19.9751 87.6482 20.0298C87.4932 20.0754 87.3656 20.1073 87.2654 20.1255C87.0193 20.1711 86.7914 20.2121 86.5818 20.2485C86.3721 20.2759 86.1534 20.2987 85.9255 20.3169C85.6977 20.3351 85.4242 20.3442 85.1052 20.3442ZM96.4392 20.3989C96.2205 20.3989 95.988 20.3807 95.7419 20.3442C95.4958 20.3169 95.2908 20.285 95.1267 20.2485C94.7895 20.1847 94.5434 20.1346 94.3884 20.0981C94.2426 20.0526 94.1059 20.0207 93.9783 20.0024C93.8598 19.4373 93.7732 18.9771 93.7185 18.6216C93.6638 18.257 93.6365 17.9927 93.6365 17.8286C93.6365 17.7739 93.7094 17.7466 93.8552 17.7466C94.0193 17.7466 94.1332 17.7876 94.197 17.8696C94.516 19.1821 95.2725 19.8384 96.4665 19.8384C96.9223 19.8384 97.3096 19.7017 97.6287 19.4282C97.9477 19.1548 98.1072 18.7674 98.1072 18.2661C98.1072 18.1021 98.0707 17.9015 97.9978 17.6646C97.934 17.4276 97.7836 17.2225 97.5466 17.0493C97.3643 16.9126 97.2139 16.8123 97.0955 16.7485C96.977 16.6756 96.8585 16.6118 96.74 16.5571C96.6215 16.4933 96.4711 16.4067 96.2888 16.2974L95.7419 15.9692C95.4594 15.7961 95.1768 15.6001 94.8943 15.3813C94.6117 15.1535 94.3747 14.8892 94.1833 14.5884C94.0011 14.2876 93.9099 13.9458 93.9099 13.563C93.9099 13.0799 94.033 12.6606 94.279 12.3052C94.5343 11.9406 94.8624 11.658 95.2634 11.4575C95.6736 11.257 96.1156 11.1567 96.5896 11.1567C96.7901 11.1567 96.977 11.1704 97.1501 11.1978C97.3324 11.216 97.4828 11.2388 97.6013 11.2661C97.8747 11.3299 98.0662 11.38 98.1755 11.4165C98.294 11.453 98.4535 11.494 98.654 11.5396C98.7634 12.0135 98.8181 12.6652 98.8181 13.4946C98.8181 13.5584 98.7725 13.5903 98.6814 13.5903C98.4535 13.5903 98.335 13.5448 98.3259 13.4536C98.2803 13.1802 98.1801 12.9113 98.0251 12.647C97.8702 12.3826 97.6606 12.1639 97.3962 11.9907C97.1319 11.8084 96.8175 11.7173 96.4529 11.7173C96.0792 11.7173 95.7875 11.7902 95.5779 11.936C95.3682 12.0728 95.2178 12.2505 95.1267 12.4692C95.0447 12.6789 95.0037 12.9022 95.0037 13.1392C95.0037 13.367 95.0583 13.5949 95.1677 13.8228C95.2771 14.0506 95.4366 14.242 95.6462 14.397C95.9288 14.6066 96.2113 14.8026 96.4939 14.9849C96.7856 15.1672 97.0863 15.354 97.3962 15.5454C97.6879 15.7277 97.9796 15.9328 98.2712 16.1606C98.5629 16.3794 98.8044 16.63 98.9958 16.9126C99.1964 17.1951 99.2966 17.5233 99.2966 17.897C99.2966 18.38 99.1645 18.813 98.9001 19.1958C98.6358 19.5695 98.2849 19.8657 97.8474 20.0845C97.419 20.2941 96.9496 20.3989 96.4392 20.3989ZM101.676 19.0454C100.819 18.1522 100.39 17.063 100.39 15.7778C100.39 15.1398 100.504 14.5428 100.732 13.9868C100.96 13.4217 101.27 12.9295 101.662 12.5103C102.063 12.0819 102.528 11.7492 103.056 11.5122C103.585 11.2661 104.15 11.1431 104.752 11.1431C105.353 11.1431 105.918 11.2661 106.447 11.5122C106.976 11.7492 107.441 12.0819 107.842 12.5103C108.243 12.9295 108.557 13.4217 108.785 13.9868C109.013 14.5428 109.127 15.1398 109.127 15.7778C109.127 17.063 108.698 18.1522 107.842 19.0454C107.258 19.6652 106.597 20.0754 105.859 20.2759C105.121 20.4855 104.383 20.4855 103.644 20.2759C102.915 20.0754 102.259 19.6652 101.676 19.0454ZM104.97 19.811C105.554 19.811 106.064 19.6196 106.502 19.2368C106.939 18.8631 107.258 18.3983 107.459 17.8423C107.668 17.2772 107.773 16.6756 107.773 16.0376C107.773 15.3175 107.655 14.6294 107.418 13.9731C107.181 13.326 106.812 12.7882 106.31 12.3599C105.809 11.9315 105.221 11.7173 104.547 11.7173C103.972 11.7173 103.476 11.895 103.056 12.2505C102.637 12.5968 102.314 13.0571 102.086 13.6313C101.858 14.1965 101.744 14.8117 101.744 15.4771C101.744 16.1971 101.862 16.8853 102.099 17.5415C102.336 18.1886 102.705 18.731 103.207 19.1685C103.708 19.5968 104.296 19.811 104.97 19.811ZM111.629 19.0454C110.772 18.1522 110.343 17.063 110.343 15.7778C110.343 15.1398 110.457 14.5428 110.685 13.9868C110.913 13.4217 111.223 12.9295 111.615 12.5103C112.016 12.0819 112.481 11.7492 113.01 11.5122C113.538 11.2661 114.103 11.1431 114.705 11.1431C115.306 11.1431 115.871 11.2661 116.4 11.5122C116.929 11.7492 117.394 12.0819 117.795 12.5103C118.196 12.9295 118.51 13.4217 118.738 13.9868C118.966 14.5428 119.08 15.1398 119.08 15.7778C119.08 17.063 118.651 18.1522 117.795 19.0454C117.211 19.6652 116.551 20.0754 115.812 20.2759C115.074 20.4855 114.336 20.4855 113.597 20.2759C112.868 20.0754 112.212 19.6652 111.629 19.0454ZM114.924 19.811C115.507 19.811 116.017 19.6196 116.455 19.2368C116.892 18.8631 117.211 18.3983 117.412 17.8423C117.621 17.2772 117.726 16.6756 117.726 16.0376C117.726 15.3175 117.608 14.6294 117.371 13.9731C117.134 13.326 116.765 12.7882 116.263 12.3599C115.762 11.9315 115.174 11.7173 114.5 11.7173C113.926 11.7173 113.429 11.895 113.01 12.2505C112.59 12.5968 112.267 13.0571 112.039 13.6313C111.811 14.1965 111.697 14.8117 111.697 15.4771C111.697 16.1971 111.816 16.8853 112.052 17.5415C112.289 18.1886 112.659 18.731 113.16 19.1685C113.661 19.5968 114.249 19.811 114.924 19.811ZM127.761 20.3306C127.616 20.3306 127.465 20.2257 127.31 20.0161L122.006 12.4966V18.3345C122.006 18.9543 122.038 19.3781 122.101 19.606C122.12 19.6424 122.197 19.688 122.334 19.7427C122.48 19.7882 122.635 19.8293 122.799 19.8657C122.963 19.8931 123.072 19.9067 123.127 19.9067C123.154 19.9067 123.168 19.9614 123.168 20.0708C123.177 20.1802 123.172 20.2576 123.154 20.3032C122.698 20.285 122.338 20.2713 122.074 20.2622C121.819 20.244 121.655 20.2349 121.582 20.2349L120.01 20.3032C119.982 20.2759 119.968 20.2075 119.968 20.0981C119.968 19.9705 119.982 19.9067 120.01 19.9067C120.101 19.9067 120.228 19.8931 120.392 19.8657C120.556 19.8293 120.711 19.7882 120.857 19.7427C121.003 19.688 121.085 19.6333 121.103 19.5786C121.194 19.3599 121.24 18.9315 121.24 18.2935V12.9204C121.24 12.4556 121.208 12.1138 121.144 11.895C121.126 11.8403 121.044 11.7948 120.898 11.7583C120.761 11.7127 120.611 11.6763 120.447 11.6489C120.283 11.6216 120.155 11.6079 120.064 11.6079C120.028 11.6079 120.01 11.5487 120.01 11.4302C120.01 11.3208 120.028 11.2479 120.064 11.2114C120.42 11.2205 120.711 11.2297 120.939 11.2388C121.176 11.2388 121.349 11.2388 121.459 11.2388C121.696 11.2388 121.905 11.2388 122.088 11.2388C122.27 11.2297 122.425 11.2205 122.552 11.2114C122.726 11.5213 123.195 12.2368 123.961 13.3579C124.735 14.4699 125.811 15.9875 127.187 17.9106C127.215 17.7557 127.228 17.5688 127.228 17.3501V13.0981C127.228 12.5239 127.196 12.1229 127.133 11.895C127.114 11.8403 127.032 11.7902 126.886 11.7446C126.741 11.6991 126.586 11.6626 126.422 11.6353C126.258 11.5988 126.135 11.5806 126.052 11.5806C126.016 11.5806 125.998 11.5259 125.998 11.4165C125.998 11.3162 126.016 11.2479 126.052 11.2114C126.135 11.2114 126.271 11.2205 126.463 11.2388C126.654 11.2479 126.859 11.2616 127.078 11.2798C127.306 11.2889 127.502 11.2935 127.666 11.2935C127.903 11.2935 128.204 11.2798 128.568 11.2524C128.924 11.2251 129.133 11.2114 129.197 11.2114C129.215 11.2843 129.224 11.3527 129.224 11.4165C129.224 11.5259 129.206 11.5806 129.17 11.5806C129.115 11.5806 129.001 11.5988 128.828 11.6353C128.655 11.6717 128.491 11.7127 128.336 11.7583C128.19 11.8039 128.108 11.8494 128.09 11.895C128.053 12.0409 128.026 12.2186 128.008 12.4282C127.989 12.6379 127.98 12.884 127.98 13.1665V18.3618C127.98 18.9269 127.994 19.5649 128.021 20.2759C127.985 20.3123 127.898 20.3306 127.761 20.3306Z" fill="black"/>
</svg>
