<svg width="184" height="184" viewBox="0 0 184 184" fill="none" xmlns="http://www.w3.org/2000/svg">
<path d="M159.726 96.9668L174.548 99.268L174.3 100.868L172.588 100.602L172.557 100.799C172.725 100.95 172.938 101.155 173.194 101.415C173.455 101.681 173.668 102.035 173.834 102.478C174.004 102.926 174.035 103.501 173.926 104.203C173.785 105.11 173.434 105.875 172.873 106.497C172.311 107.119 171.584 107.56 170.691 107.819C169.798 108.078 168.785 108.119 167.653 107.944C166.511 107.766 165.552 107.418 164.775 106.9C164.002 106.382 163.44 105.744 163.088 104.985C162.741 104.227 162.637 103.399 162.777 102.5C162.884 101.808 163.085 101.271 163.379 100.89C163.678 100.51 163.992 100.231 164.321 100.052C164.656 99.874 164.93 99.7394 165.146 99.6482L165.168 99.5079L159.469 98.6231L159.726 96.9668ZM168.906 100.059C168.092 99.933 167.355 99.9409 166.695 100.083C166.041 100.226 165.502 100.499 165.08 100.903C164.663 101.308 164.403 101.842 164.3 102.507C164.192 103.199 164.285 103.805 164.578 104.325C164.875 104.851 165.316 105.278 165.902 105.609C166.492 105.945 167.171 106.172 167.938 106.292C168.696 106.409 169.397 106.398 170.042 106.259C170.69 106.125 171.229 105.851 171.657 105.439C172.089 105.031 172.36 104.477 172.469 103.775C172.573 103.101 172.49 102.509 172.22 101.997C171.954 101.486 171.536 101.067 170.964 100.738C170.396 100.411 169.71 100.184 168.906 100.059Z" fill="black"/>
<path d="M161.421 110.43L171.847 113.641L171.37 115.188L169.795 114.704L169.762 114.812C170.219 115.161 170.532 115.634 170.7 116.231C170.868 116.827 170.856 117.438 170.664 118.062C170.627 118.18 170.58 118.326 170.521 118.501C170.462 118.677 170.414 118.808 170.377 118.896L168.748 118.394C168.778 118.344 168.837 118.226 168.924 118.04C169.014 117.859 169.092 117.663 169.158 117.45C169.314 116.943 169.347 116.458 169.257 115.994C169.17 115.536 168.976 115.135 168.676 114.79C168.379 114.451 167.996 114.209 167.525 114.064L160.927 112.032L161.421 110.43Z" fill="black"/>
<path d="M157.052 121.744C157.469 120.852 158.047 120.168 158.787 119.694C159.524 119.223 160.363 118.978 161.303 118.957C162.241 118.941 163.22 119.172 164.241 119.649C165.271 120.13 166.082 120.737 166.675 121.469C167.266 122.206 167.618 123.008 167.73 123.875C167.839 124.747 167.686 125.629 167.268 126.522C166.851 127.414 166.274 128.095 165.536 128.565C164.797 129.04 163.956 129.285 163.014 129.299C162.07 129.317 161.083 129.086 160.053 128.605C159.033 128.127 158.229 127.521 157.642 126.787C157.053 126.057 156.703 125.256 156.594 124.384C156.482 123.516 156.635 122.636 157.052 121.744ZM158.416 122.382C158.099 123.06 158.012 123.698 158.155 124.298C158.297 124.898 158.603 125.436 159.071 125.911C159.539 126.385 160.103 126.777 160.763 127.086C161.424 127.395 162.088 127.578 162.757 127.634C163.426 127.691 164.038 127.583 164.595 127.31C165.151 127.037 165.588 126.561 165.904 125.884C166.221 125.206 166.306 124.566 166.159 123.964C166.012 123.362 165.702 122.823 165.23 122.346C164.758 121.869 164.192 121.476 163.531 121.167C162.871 120.858 162.208 120.677 161.544 120.622C160.879 120.568 160.271 120.678 159.719 120.953C159.167 121.228 158.733 121.704 158.416 122.382Z" fill="black"/>
<path d="M160.306 138.561L159.113 137.79L162.307 132.852L163.499 133.623L160.306 138.561ZM153.382 129.178L163.807 135.92C164.332 136.259 164.69 136.665 164.88 137.138C165.071 137.611 165.126 138.1 165.047 138.607C164.967 139.114 164.786 139.586 164.503 140.023C164.279 140.369 164.069 140.633 163.872 140.816C163.675 140.999 163.518 141.128 163.401 141.205L162.446 140.013C162.516 139.957 162.61 139.876 162.729 139.772C162.844 139.672 162.967 139.521 163.098 139.318C163.399 138.853 163.499 138.441 163.398 138.083C163.295 137.728 163.016 137.404 162.563 137.111L152.472 130.586L153.382 129.178Z" fill="black"/>
<path d="M149.28 135.175L157.886 141.879L156.856 143.201L148.25 136.498L149.28 135.175ZM158.797 143.668C158.998 143.411 159.259 143.257 159.58 143.207C159.898 143.16 160.18 143.233 160.427 143.425C160.673 143.617 160.813 143.873 160.846 144.193C160.876 144.517 160.791 144.807 160.59 145.065C160.389 145.323 160.13 145.475 159.812 145.521C159.491 145.571 159.207 145.5 158.96 145.308C158.714 145.116 158.575 144.858 158.545 144.535C158.512 144.215 158.596 143.926 158.797 143.668Z" fill="black"/>
<path d="M155.868 149.98L145.038 140.27L146.156 139.022L156.987 148.732L155.868 149.98Z" fill="black"/>
<path d="M139.548 145.372C140.335 144.677 141.168 144.25 142.047 144.093C142.925 143.943 143.796 144.045 144.66 144.401C145.523 144.763 146.324 145.362 147.064 146.2C147.804 147.037 148.303 147.91 148.563 148.818C148.821 149.733 148.834 150.613 148.601 151.457C148.367 152.308 147.881 153.06 147.143 153.712C146.717 154.088 146.234 154.389 145.693 154.613C145.153 154.838 144.571 154.941 143.948 154.923C143.329 154.908 142.687 154.729 142.024 154.386C141.361 154.044 140.692 153.491 140.018 152.728L139.548 152.195L145.85 146.628L146.809 147.714L141.785 152.153C142.192 152.614 142.648 152.944 143.153 153.143C143.653 153.345 144.165 153.402 144.687 153.313C145.205 153.228 145.692 152.985 146.146 152.583C146.646 152.141 146.969 151.635 147.115 151.063C147.261 150.499 147.257 149.933 147.105 149.367C146.952 148.801 146.676 148.292 146.278 147.842L145.639 147.118C145.093 146.5 144.524 146.071 143.932 145.83C143.339 145.595 142.753 145.536 142.172 145.651C141.594 145.769 141.052 146.053 140.545 146.501C140.215 146.792 139.957 147.102 139.773 147.429C139.588 147.763 139.481 148.111 139.452 148.471C139.426 148.835 139.485 149.206 139.629 149.584L138.115 150.316C137.879 149.791 137.774 149.239 137.799 148.661C137.828 148.086 137.988 147.515 138.278 146.949C138.571 146.387 138.994 145.862 139.548 145.372Z" fill="black"/>
<path d="M124.186 151.718L130.235 165.444L128.753 166.097L128.055 164.511L127.873 164.591C127.836 164.814 127.778 165.104 127.697 165.46C127.613 165.823 127.43 166.194 127.147 166.572C126.861 166.957 126.393 167.292 125.743 167.579C124.902 167.949 124.069 168.066 123.243 167.928C122.416 167.79 121.653 167.415 120.954 166.802C120.254 166.189 119.673 165.359 119.211 164.31C118.745 163.253 118.521 162.257 118.539 161.323C118.559 160.394 118.794 159.576 119.244 158.871C119.695 158.17 120.337 157.636 121.169 157.269C121.81 156.987 122.37 156.867 122.85 156.909C123.331 156.956 123.735 157.07 124.064 157.251C124.394 157.437 124.655 157.596 124.848 157.728L124.978 157.671L122.653 152.394L124.186 151.718ZM126.528 161.117C126.196 160.363 125.792 159.747 125.317 159.268C124.844 158.793 124.324 158.487 123.756 158.349C123.19 158.216 122.599 158.285 121.984 158.556C121.343 158.838 120.882 159.243 120.602 159.77C120.32 160.303 120.197 160.906 120.235 161.577C120.269 162.255 120.443 162.95 120.757 163.66C121.066 164.362 121.453 164.947 121.918 165.415C122.38 165.889 122.901 166.195 123.479 166.333C124.055 166.478 124.668 166.407 125.318 166.121C125.942 165.846 126.396 165.457 126.682 164.953C126.969 164.454 127.097 163.875 127.065 163.216C127.035 162.562 126.856 161.862 126.528 161.117Z" fill="black"/>
<path d="M113.766 160.383L116.7 170.89L115.14 171.326L114.697 169.739L114.587 169.769C114.541 170.343 114.312 170.861 113.901 171.325C113.49 171.789 112.969 172.109 112.34 172.284C112.221 172.318 112.072 172.357 111.893 172.402C111.714 172.447 111.578 172.478 111.484 172.494L111.026 170.852C111.084 170.85 111.215 170.836 111.419 170.809C111.62 170.787 111.827 170.746 112.041 170.687C112.552 170.544 112.978 170.309 113.32 169.983C113.658 169.663 113.891 169.283 114.019 168.844C114.144 168.411 114.14 167.957 114.008 167.483L112.152 160.834L113.766 160.383Z" fill="black"/>
<path d="M101.922 162.791C102.898 162.659 103.786 162.775 104.586 163.139C105.381 163.504 106.041 164.077 106.567 164.856C107.089 165.636 107.425 166.584 107.577 167.7C107.73 168.827 107.659 169.837 107.365 170.732C107.066 171.628 106.582 172.358 105.913 172.922C105.239 173.486 104.414 173.835 103.438 173.967C102.463 174.099 101.577 173.983 100.782 173.618C99.9825 173.253 99.3217 172.679 98.7995 171.894C98.2727 171.11 97.9329 170.156 97.7802 169.029C97.6287 167.913 97.7027 166.909 98.0023 166.018C98.2972 165.127 98.7815 164.4 99.4551 163.835C100.124 163.272 100.946 162.923 101.922 162.791ZM102.125 164.283C101.383 164.384 100.799 164.656 100.372 165.101C99.9452 165.546 99.6588 166.094 99.5129 166.745C99.367 167.395 99.3431 168.082 99.4411 168.804C99.5391 169.527 99.7454 170.184 100.06 170.777C100.375 171.37 100.797 171.826 101.328 172.146C101.859 172.466 102.495 172.576 103.236 172.475C103.977 172.374 104.561 172.099 104.988 171.65C105.414 171.2 105.7 170.648 105.845 169.992C105.99 169.337 106.014 168.648 105.916 167.926C105.818 167.203 105.612 166.548 105.298 165.96C104.984 165.372 104.562 164.92 104.032 164.605C103.502 164.29 102.866 164.182 102.125 164.283Z" fill="black"/>
<path d="M89.199 174.596L89.2099 173.176L95.0904 173.221L95.0795 174.642L89.199 174.596ZM93.4024 163.719L93.3065 176.134C93.3017 176.759 93.1509 177.278 92.8541 177.693C92.5574 178.107 92.1738 178.417 91.7035 178.621C91.2331 178.826 90.7375 178.927 90.2167 178.923C89.8048 178.919 89.4689 178.884 89.209 178.815C88.9491 178.747 88.7555 178.684 88.6281 178.626L89.1222 177.181C89.2072 177.21 89.3253 177.247 89.4765 177.29C89.6229 177.334 89.8169 177.357 90.0583 177.359C90.6123 177.363 91.0135 177.226 91.2618 176.949C91.5055 176.672 91.6293 176.263 91.6335 175.723L91.7263 163.706L93.4024 163.719Z" fill="black"/>
<path d="M86.1018 163.477L85.0936 174.339L83.4246 174.184L84.4328 163.322L86.1018 163.477ZM84.0769 176.071C84.4022 176.101 84.6725 176.238 84.8876 176.481C85.0981 176.724 85.1889 177.001 85.16 177.312C85.1311 177.624 84.9909 177.879 84.7393 178.079C84.483 178.279 84.1922 178.364 83.8669 178.334C83.5416 178.303 83.2737 178.167 83.0632 177.924C82.8481 177.68 82.7549 177.403 82.7838 177.092C82.8127 176.781 82.9553 176.525 83.2116 176.325C83.4632 176.125 83.7516 176.04 84.0769 176.071Z" fill="black"/>
<path d="M77.2249 177.003L79.5664 162.647L81.2207 162.917L78.8791 177.272L77.2249 177.003Z" fill="black"/>
<path d="M72.3538 160.766C73.364 161.056 74.1714 161.53 74.7759 162.186C75.3746 162.846 75.7562 163.635 75.9206 164.555C76.0792 165.477 76.0043 166.475 75.6957 167.549C75.3871 168.623 74.9194 169.514 74.2927 170.22C73.6601 170.93 72.9251 171.414 72.0877 171.671C71.2444 171.931 70.3495 171.925 69.4029 171.653C68.8568 171.496 68.3437 171.25 67.8636 170.915C67.3835 170.58 66.9838 170.145 66.6646 169.61C66.3441 169.079 66.1503 168.442 66.0831 167.699C66.0159 166.955 66.1229 166.094 66.4041 165.116L66.6002 164.433L74.6823 166.756L74.2821 168.148L67.8383 166.297C67.6683 166.888 67.635 167.45 67.7382 167.982C67.837 168.513 68.0639 168.975 68.4191 169.368C68.7697 169.759 69.2362 170.038 69.8187 170.206C70.4604 170.39 71.0613 170.39 71.6216 170.207C72.176 170.026 72.6509 169.719 73.0463 169.286C73.4418 168.853 73.7225 168.347 73.8886 167.769L74.1553 166.841C74.3828 166.049 74.4392 165.338 74.3244 164.709C74.2037 164.084 73.9388 163.557 73.5297 163.129C73.1193 162.705 72.5887 162.4 71.938 162.213C71.5147 162.092 71.1155 162.041 70.7402 162.061C70.359 162.085 70.0086 162.181 69.6891 162.35C69.3682 162.524 69.0871 162.773 68.846 163.098L67.4152 162.214C67.7307 161.733 68.1394 161.348 68.6413 161.059C69.1418 160.774 69.7086 160.602 70.3415 160.543C70.9731 160.488 71.6439 160.562 72.3538 160.766Z" fill="black"/>
<path d="M58.8153 151.212L50.4866 163.688L49.1398 162.788L50.102 161.347L49.9367 161.237C49.7291 161.326 49.4533 161.432 49.1091 161.555C48.7584 161.68 48.3474 161.724 47.8759 161.688C47.3979 161.654 46.8636 161.44 46.2729 161.045C45.509 160.535 44.9631 159.895 44.6353 159.124C44.3075 158.352 44.2142 157.507 44.3553 156.588C44.4964 155.669 44.8851 154.733 45.5213 153.78C46.1628 152.819 46.8822 152.095 47.6797 151.609C48.4745 151.126 49.2901 150.885 50.1266 150.885C50.9605 150.89 51.7555 151.145 52.5116 151.649C53.0944 152.038 53.4966 152.446 53.7183 152.873C53.9373 153.304 54.0585 153.707 54.0819 154.081C54.1027 154.459 54.109 154.765 54.101 154.999L54.2191 155.078L57.4213 150.282L58.8153 151.212ZM52.1448 158.236C52.6023 157.551 52.9054 156.879 53.0542 156.222C53.2004 155.568 53.1792 154.964 52.9904 154.411C52.799 153.862 52.4238 153.401 51.8646 153.028C51.2818 152.639 50.6929 152.468 50.098 152.514C49.4965 152.563 48.9225 152.783 48.3759 153.175C47.8228 153.569 47.3307 154.089 46.8995 154.734C46.4736 155.372 46.1882 156.013 46.0434 156.656C45.8919 157.301 45.9132 157.904 46.1072 158.467C46.2946 159.03 46.6837 159.509 47.2743 159.903C47.8414 160.282 48.4138 160.456 48.9917 160.426C49.5669 160.401 50.1238 160.197 50.6625 159.817C51.1985 159.44 51.6926 158.913 52.1448 158.236Z" fill="black"/>
<path d="M45.9365 147.095L38.6544 155.217L37.4486 154.136L38.5486 152.909L38.4639 152.834C37.9556 153.103 37.3953 153.189 36.783 153.091C36.1708 152.994 35.6215 152.727 35.135 152.291C35.0433 152.209 34.9303 152.104 34.796 151.978C34.6616 151.851 34.5624 151.752 34.4982 151.682L35.636 150.413C35.6688 150.461 35.7516 150.564 35.8842 150.721C36.0101 150.879 36.156 151.032 36.3217 151.18C36.7165 151.534 37.1433 151.767 37.6021 151.88C38.0542 151.993 38.4998 151.985 38.9388 151.857C39.371 151.73 39.7515 151.482 40.0803 151.116L44.6885 145.976L45.9365 147.095Z" fill="black"/>
<path d="M37.5188 138.401C38.1546 139.153 38.5334 139.964 38.6554 140.835C38.7742 141.701 38.6464 142.566 38.2717 143.428C37.894 144.287 37.2749 145.08 36.4143 145.808C35.5465 146.541 34.6559 147.024 33.7428 147.257C32.8265 147.486 31.951 147.47 31.1161 147.208C30.2782 146.943 29.5414 146.434 28.9056 145.682C28.2698 144.93 27.8924 144.121 27.7736 143.254C27.6516 142.384 27.7813 141.518 28.1626 140.656C28.5409 139.791 29.1639 138.991 30.0318 138.257C30.8924 137.53 31.779 137.053 32.6916 136.827C33.6012 136.598 34.4749 136.616 35.3128 136.881C36.1476 137.142 36.883 137.649 37.5188 138.401ZM36.3689 139.373C35.8859 138.802 35.3421 138.456 34.7374 138.334C34.1327 138.213 33.5169 138.266 32.8898 138.492C32.2627 138.718 31.6707 139.067 31.1139 139.538C30.557 140.008 30.113 140.535 29.7819 141.119C29.4507 141.703 29.2928 142.305 29.3081 142.924C29.3234 143.544 29.5725 144.139 30.0555 144.71C30.5384 145.282 31.0841 145.626 31.6924 145.744C32.3007 145.863 32.9202 145.807 33.5509 145.578C34.1816 145.348 34.7753 144.998 35.3322 144.528C35.889 144.057 36.3312 143.531 36.6588 142.95C36.9863 142.37 37.1406 141.771 37.1217 141.155C37.1028 140.538 36.8519 139.944 36.3689 139.373Z" fill="black"/>
<path d="M20.9125 134.376L22.1109 133.614L25.2678 138.575L24.0694 139.338L20.9125 134.376ZM32.3278 131.995L21.8535 138.66C21.3262 138.995 20.808 139.151 20.2988 139.127C19.7897 139.103 19.3214 138.949 18.894 138.666C18.4666 138.382 18.1131 138.02 17.8335 137.581C17.6124 137.233 17.4599 136.932 17.376 136.677C17.2922 136.421 17.2399 136.225 17.2192 136.086L18.7009 135.716C18.7226 135.803 18.7562 135.922 18.8016 136.073C18.8444 136.219 18.9307 136.395 19.0603 136.598C19.3577 137.066 19.6903 137.328 20.0582 137.386C20.4235 137.44 20.8339 137.322 21.2893 137.032L31.428 130.581L32.3278 131.995Z" fill="black"/>
<path d="M28.5424 125.68L18.8386 130.664L18.0728 129.173L27.7766 124.189L28.5424 125.68ZM16.8319 130.737C16.9812 131.027 17.0109 131.329 16.9211 131.641C16.8292 131.949 16.6442 132.174 16.3663 132.317C16.0883 132.46 15.7973 132.479 15.4934 132.374C15.1873 132.265 14.9596 132.066 14.8103 131.775C14.661 131.485 14.6323 131.185 14.7243 130.877C14.8141 130.565 14.9979 130.337 15.2759 130.195C15.5539 130.052 15.8459 130.035 16.1521 130.144C16.456 130.248 16.6826 130.446 16.8319 130.737Z" fill="black"/>
<path d="M12.3897 125.563L25.7435 119.797L26.4079 121.336L13.0542 127.102L12.3897 125.563Z" fill="black"/>
<path d="M23.4374 112.761C23.7391 113.768 23.7771 114.703 23.5515 115.566C23.3199 116.427 22.8619 117.174 22.1773 117.81C21.4869 118.442 20.6064 118.918 19.536 119.239C18.4657 119.559 17.4638 119.647 16.5305 119.502C15.5913 119.353 14.7874 118.996 14.1186 118.43C13.4439 117.861 12.9652 117.105 12.6825 116.162C12.5194 115.618 12.4491 115.053 12.4715 114.468C12.4939 113.883 12.644 113.311 12.9217 112.754C13.1949 112.197 13.6261 111.69 14.2153 111.232C14.8046 110.773 15.5868 110.398 16.5619 110.106L17.2423 109.902L19.6562 117.957L18.2683 118.373L16.3437 111.951C15.7541 112.127 15.2633 112.403 14.8713 112.777C14.478 113.147 14.2121 113.588 14.0736 114.099C13.9338 114.605 13.9509 115.149 14.1249 115.73C14.3165 116.369 14.6411 116.875 15.0985 117.247C15.5501 117.616 16.065 117.849 16.6432 117.948C17.2214 118.047 17.7985 118.01 18.3746 117.837L19.2998 117.56C20.089 117.323 20.7172 116.987 21.1845 116.55C21.6459 116.11 21.946 115.603 22.085 115.027C22.2194 114.453 22.1894 113.842 21.995 113.193C21.8686 112.771 21.6955 112.408 21.4756 112.103C21.2499 111.795 20.9794 111.552 20.6643 111.375C20.3446 111.199 19.983 111.097 19.5794 111.07L19.5499 109.388C20.125 109.394 20.6698 109.53 21.1845 109.796C21.6946 110.063 22.1458 110.447 22.5379 110.947C22.9255 111.449 23.2253 112.053 23.4374 112.761Z" fill="black"/>
<path d="M24.116 96.0285L9.11882 95.739L9.15007 94.12L10.8827 94.1535L10.8865 93.9546C10.6996 93.8279 10.4614 93.6528 10.1721 93.4294C9.87817 93.2011 9.61919 92.8789 9.39517 92.4625C9.16652 92.0414 9.05904 91.4757 9.07275 90.7656C9.09047 89.8473 9.3357 89.0422 9.80841 88.3504C10.2811 87.6586 10.9426 87.1244 11.7928 86.7478C12.6431 86.3711 13.641 86.1939 14.7866 86.216C15.9417 86.2383 16.9391 86.4541 17.7789 86.8633C18.614 87.2725 19.2568 87.8295 19.7073 88.5344C20.153 89.2391 20.3671 90.046 20.3496 90.9549C20.3361 91.6555 20.2093 92.2143 19.9692 92.6311C19.7243 93.0479 19.4506 93.367 19.148 93.5884C18.8406 93.8098 18.5863 93.9801 18.3851 94.0994L18.3824 94.2414L24.1484 94.3527L24.116 96.0285ZM14.6042 94.1969C15.4279 94.2128 16.1569 94.1061 16.7911 93.8768C17.4207 93.6475 17.9174 93.3042 18.2815 92.8472C18.6407 92.39 18.8268 91.8253 18.8398 91.1531C18.8533 90.4524 18.68 89.8642 18.3198 89.3884C17.955 88.9078 17.46 88.5431 16.835 88.2942C16.2053 88.0406 15.5022 87.9062 14.7259 87.8912C13.959 87.8764 13.2655 87.9815 12.6455 88.2063C12.0209 88.4263 11.5241 88.7695 11.1552 89.2359C10.7817 89.6976 10.588 90.2834 10.5743 90.9935C10.5612 91.6752 10.7229 92.2514 11.0595 92.722C11.3914 93.1925 11.8628 93.552 12.4736 93.8006C13.0797 94.0491 13.7899 94.1812 14.6042 94.1969Z" fill="black"/>
<path d="M20.6431 82.6976L9.88312 80.9002L10.1499 79.303L11.7751 79.5745L11.7939 79.4624C11.2942 79.1774 10.9215 78.7503 10.6758 78.1812C10.43 77.6121 10.3609 77.0053 10.4686 76.3608C10.4889 76.2394 10.5166 76.088 10.5517 75.9066C10.5868 75.7253 10.6168 75.5887 10.6417 75.4968L12.323 75.7777C12.2996 75.8314 12.2571 75.9563 12.1956 76.1524C12.1301 76.3431 12.079 76.5482 12.0424 76.7677C11.955 77.2907 11.9867 77.7761 12.1376 78.2237C12.2845 78.6659 12.5296 79.0381 12.8728 79.3402C13.212 79.6369 13.6245 79.8258 14.1102 79.907L20.9193 81.0444L20.6431 82.6976Z" fill="black"/>
<path d="M23.4201 71.0365C23.1267 71.9766 22.6456 72.7317 21.9767 73.3016C21.3092 73.8671 20.5111 74.2232 19.5824 74.3698C18.6552 74.512 17.6537 74.4152 16.5779 74.0795C15.4932 73.741 14.6076 73.2489 13.9213 72.6032C13.2363 71.9529 12.7802 71.2055 12.5527 70.3607C12.3267 69.5115 12.3604 68.6168 12.6538 67.6766C12.9472 66.7365 13.4276 65.9837 14.0951 65.4182C14.764 64.8483 15.5644 64.4929 16.4962 64.3522C17.4293 64.2069 18.4383 64.3035 19.5231 64.642C20.5988 64.9777 21.4769 65.47 22.1573 66.1188C22.8391 66.7631 23.293 67.5099 23.5191 68.3592C23.7465 69.2039 23.7135 70.0963 23.4201 71.0365ZM21.9828 70.5879C22.2057 69.8738 22.206 69.2291 21.9837 68.6538C21.7615 68.0785 21.3866 67.587 20.8591 67.1794C20.3316 66.7717 19.7198 66.4593 19.0238 66.2421C18.3277 66.0248 17.6445 65.9332 16.9743 65.9671C16.304 66.0009 15.7117 66.1906 15.1971 66.5359C14.6826 66.8813 14.314 67.411 14.0911 68.1252C13.8682 68.8393 13.8702 69.4847 14.097 70.0614C14.3237 70.6381 14.7031 71.131 15.2351 71.5401C15.7672 71.9491 16.3812 72.2623 17.0773 72.4795C17.7733 72.6967 18.4542 72.7877 19.12 72.7524C19.7857 72.7171 20.3736 72.5261 20.8835 72.1793C21.3935 71.8325 21.7599 71.3021 21.9828 70.5879Z" fill="black"/>
<path d="M17.9648 54.7336L19.2493 55.3401L16.7385 60.6578L15.454 60.0514L17.9648 54.7336ZM26.0708 63.1163L14.8445 57.8157C14.2793 57.5489 13.871 57.1938 13.6196 56.7504C13.3681 56.3071 13.2483 55.829 13.26 55.3162C13.2718 54.8033 13.3888 54.3114 13.6112 53.8405C13.7871 53.468 13.9606 53.1781 14.1317 52.9709C14.3028 52.7637 14.4414 52.6145 14.5473 52.5231L15.6513 53.5785C15.5892 53.6434 15.5066 53.7353 15.4034 53.8541C15.3022 53.9686 15.2 54.1351 15.0969 54.3534C14.8604 54.8544 14.8159 55.2758 14.9634 55.6177C15.1129 55.9554 15.4317 56.2394 15.9198 56.4699L26.7864 61.6007L26.0708 63.1163Z" fill="black"/>
<path d="M29.3075 56.6698L19.8945 51.1558L20.7417 49.7096L30.1547 55.2235L29.3075 56.6698ZM18.7565 49.5014C18.5913 49.7833 18.3529 49.9702 18.0412 50.062C17.732 50.1497 17.4425 50.1146 17.1729 49.9566C16.9032 49.7986 16.731 49.5633 16.6563 49.2507C16.5839 48.9339 16.6303 48.6346 16.7954 48.3527C16.9606 48.0708 17.1978 47.886 17.5071 47.7983C17.8187 47.7065 18.1094 47.7396 18.379 47.8975C18.6487 48.0555 18.8197 48.2928 18.892 48.6096C18.9668 48.9222 18.9216 49.2195 18.7565 49.5014Z" fill="black"/>
<path d="M20.6153 43.1496L32.6531 51.3143L31.7123 52.7015L19.6745 44.5368L20.6153 43.1496Z" fill="black"/>
<path d="M37.4117 45.4683C36.7244 46.2636 35.956 46.7979 35.1064 47.0713C34.2564 47.3379 33.3797 47.3531 32.4762 47.1168C31.5723 46.8738 30.6976 46.3869 29.8522 45.6562C29.0068 44.9256 28.3948 44.1276 28.0162 43.2622C27.6371 42.3901 27.5067 41.5201 27.6247 40.6522C27.7423 39.7775 28.1231 38.9676 28.7671 38.2225C29.1386 37.7926 29.5771 37.43 30.0826 37.1347C30.5882 36.8394 31.1508 36.6592 31.7704 36.5939C32.3864 36.5255 33.046 36.6168 33.7491 36.8677C34.4522 37.1187 35.1888 37.577 35.959 38.2426L36.4964 38.707L30.9978 45.0693L29.9016 44.1219L34.2856 39.0493C33.8199 38.6468 33.3238 38.3808 32.7974 38.2513C32.2741 38.1182 31.7597 38.1305 31.2543 38.2881C30.7519 38.4422 30.3025 38.7485 29.9062 39.207C29.4697 39.7122 29.2174 40.2576 29.1492 40.8433C29.0806 41.4223 29.16 41.9822 29.3874 42.5229C29.6147 43.0635 29.9559 43.5305 30.4108 43.9237L31.1416 44.5553C31.765 45.094 32.3863 45.4432 33.0055 45.6029C33.6242 45.7559 34.2136 45.7364 34.7737 45.5446C35.3302 45.3497 35.8298 44.996 36.2725 44.4838C36.5604 44.1506 36.7739 43.8094 36.913 43.4603C37.0516 43.1044 37.1111 42.7459 37.0915 42.3848C37.0683 42.0206 36.9599 41.6609 36.7662 41.3057L38.1689 40.3778C38.473 40.8659 38.6511 41.3984 38.7032 41.9754C38.7517 42.5492 38.6702 43.1359 38.4588 43.7354C38.2437 44.3318 37.8947 44.9095 37.4117 45.4683Z" fill="black"/>
<path d="M51.6142 37.1425L43.7487 24.3701L45.1275 23.521L46.0362 24.9966L46.2055 24.8923C46.211 24.6665 46.2296 24.3715 46.2611 24.0073C46.2942 23.6366 46.4252 23.2445 46.6543 22.831C46.885 22.4109 47.3027 22.0147 47.9074 21.6422C48.6896 21.1606 49.4994 20.9315 50.3369 20.9552C51.1745 20.9788 51.9815 21.2464 52.7581 21.7579C53.5347 22.2695 54.2234 23.0131 54.8242 23.9888C55.43 24.9725 55.7878 25.9283 55.8976 26.856C56.0049 27.7797 55.8839 28.6216 55.5345 29.3817C55.1827 30.1377 54.6198 30.7541 53.8457 31.2308C53.249 31.5983 52.7104 31.7937 52.2299 31.8171C51.747 31.8365 51.3305 31.7788 50.9806 31.644C50.6282 31.5051 50.3474 31.3833 50.1383 31.2785L50.0173 31.353L53.0414 36.2636L51.6142 37.1425ZM48.0119 28.1506C48.4439 28.8521 48.9278 29.4077 49.4636 29.8173C49.997 30.2228 50.5543 30.4551 51.1356 30.5142C51.7145 30.5692 52.2901 30.4205 52.8626 30.0679C53.4593 29.7005 53.8604 29.2366 54.0659 28.6763C54.2729 28.1095 54.3121 27.496 54.1835 26.8356C54.0564 26.1687 53.7893 25.5047 53.3821 24.8435C52.9799 24.1904 52.5166 23.6638 51.9922 23.2638C51.4694 22.8574 50.9121 22.625 50.3202 22.5669C49.7299 22.5023 49.1324 22.6562 48.5276 23.0286C47.9471 23.3861 47.5499 23.8337 47.336 24.3713C47.1197 24.9049 47.0721 25.4958 47.1933 26.1441C47.312 26.7883 47.5848 27.4572 48.0119 28.1506Z" fill="black"/>
<path d="M60.7178 27.0931L56.3932 17.0778L57.8799 16.4359L58.5331 17.9486L58.6374 17.9036C58.606 17.3292 58.7627 16.7844 59.1076 16.2693C59.4525 15.7542 59.9249 15.3672 60.5248 15.1082C60.6378 15.0594 60.78 15.0005 60.9514 14.9317C61.1228 14.8628 61.2539 14.814 61.3446 14.7851L62.0203 16.35C61.9625 16.3595 61.8345 16.3915 61.6363 16.4462C61.4406 16.4946 61.2406 16.5629 61.0363 16.6511C60.5495 16.8613 60.1589 17.1512 59.8646 17.5207C59.5727 17.8839 59.3929 18.2916 59.3251 18.7438C59.2598 19.1898 59.3248 19.6388 59.52 20.0908L62.2566 26.4287L60.7178 27.0931Z" fill="black"/>
<path d="M72.2497 23.0056C71.3001 23.2668 70.4048 23.27 69.5637 23.0152C68.7272 22.7591 67.9963 22.28 67.3711 21.5779C66.7504 20.8745 66.2906 19.9796 65.9917 18.8931C65.6903 17.7974 65.6258 16.7863 65.7982 15.8599C65.9752 14.9322 66.3576 14.1444 66.9455 13.4966C67.5379 12.8474 68.3089 12.3923 69.2585 12.1311C70.2081 11.8699 71.1011 11.8673 71.9376 12.1234C72.7787 12.3782 73.5102 12.8596 74.1322 13.5675C74.7587 14.2742 75.2226 15.1753 75.524 16.271C75.8229 17.3575 75.8832 18.3624 75.705 19.2855C75.5314 20.2074 75.1483 20.9929 74.5559 21.642C73.968 22.2899 73.1993 22.7444 72.2497 23.0056ZM71.8504 21.5538C72.5717 21.3554 73.1143 21.0073 73.4783 20.5094C73.8422 20.0115 74.0532 19.4305 74.1111 18.7664C74.169 18.1022 74.1013 17.4186 73.9079 16.7156C73.7145 16.0125 73.4225 15.3881 73.0318 14.8425C72.641 14.2968 72.1614 13.9009 71.5927 13.6546C71.0241 13.4084 70.3791 13.3844 69.6578 13.5828C68.9365 13.7813 68.3945 14.1317 68.0318 14.6341C67.6691 15.1366 67.4594 15.7221 67.4028 16.3909C67.3461 17.0596 67.4144 17.7455 67.6078 18.4485C67.8012 19.1516 68.0926 19.7736 68.4821 20.3147C68.8716 20.8558 69.35 21.2472 69.9173 21.4889C70.4847 21.7306 71.1291 21.7522 71.8504 21.5538Z" fill="black"/>
<path d="M82.9069 9.59761L83.0924 11.0059L77.2621 11.7741L77.0766 10.3658L82.9069 9.59761ZM80.2478 20.9513L78.6262 8.64292C78.5445 8.02327 78.622 7.48773 78.8586 7.03629C79.0952 6.58484 79.4323 6.22523 79.8698 5.95745C80.3073 5.68967 80.7843 5.52177 81.3007 5.45373C81.7091 5.39993 82.0467 5.38887 82.3135 5.42058C82.5804 5.45228 82.7809 5.48795 82.9151 5.52758L82.6255 7.02712C82.5373 7.01008 82.4153 6.99034 82.2595 6.96788C82.1084 6.94481 81.9132 6.94904 81.6738 6.98058C81.1245 7.05294 80.7461 7.24369 80.5385 7.55281C80.3356 7.86132 80.2694 8.28314 80.3399 8.81829L81.9096 20.7324L80.2478 20.9513Z" fill="black"/>
<path d="M87.4898 20.1626L87.0268 9.26334L88.7015 9.19221L89.1644 20.0915L87.4898 20.1626ZM87.8012 7.41063C87.4748 7.42449 87.1886 7.32528 86.9426 7.11299C86.7014 6.9005 86.5741 6.63815 86.5609 6.32593C86.5476 6.01371 86.6521 5.74151 86.8745 5.50932C87.1016 5.27694 87.3783 5.15381 87.7047 5.13995C88.0312 5.12609 88.315 5.2254 88.5562 5.43789C88.8022 5.65018 88.9318 5.91244 88.9451 6.22465C88.9583 6.53687 88.8514 6.80917 88.6243 7.04156C88.402 7.27374 88.1276 7.39677 87.8012 7.41063Z" fill="black"/>
<path d="M95.1558 5.55105L94.7067 20.0896L93.0314 20.0378L93.4804 5.49931L95.1558 5.55105Z" fill="black"/>
<path d="M102.084 20.976C101.044 20.8227 100.181 20.4609 99.4947 19.8907C98.8136 19.3165 98.3303 18.5848 98.045 17.6956C97.7651 16.8024 97.7066 15.8031 97.8695 14.6976C98.0325 13.5922 98.3775 12.6475 98.9047 11.8638C99.4372 11.076 100.101 10.499 100.897 10.133C101.698 9.76289 102.586 9.64966 103.56 9.79328C104.122 9.87614 104.664 10.0516 105.184 10.3198C105.705 10.588 106.159 10.966 106.546 11.4538C106.934 11.937 107.211 12.5426 107.377 13.2705C107.542 13.9985 107.551 14.866 107.402 15.8731L107.299 16.5757L98.9795 15.3494L99.1908 13.9161L105.824 14.8938C105.913 14.2848 105.872 13.7235 105.699 13.2098C105.53 12.6968 105.244 12.2693 104.84 11.9273C104.44 11.5861 103.94 11.3712 103.341 11.2829C102.68 11.1855 102.085 11.2652 101.554 11.522C101.028 11.7748 100.599 12.1422 100.264 12.6241C99.93 13.1061 99.719 13.6445 99.6313 14.2394L99.4905 15.195C99.3703 16.0101 99.409 16.7217 99.6065 17.3299C99.8094 17.9342 100.142 18.4211 100.604 18.7908C101.068 19.1558 101.634 19.3877 102.304 19.4864C102.739 19.5506 103.142 19.5477 103.511 19.4777C103.886 19.4037 104.22 19.2616 104.515 19.0513C104.809 18.8363 105.055 18.5518 105.251 18.1978L106.786 18.8836C106.538 19.4021 106.184 19.8381 105.725 20.1917C105.267 20.5405 104.728 20.7865 104.108 20.9297C103.49 21.0683 102.815 21.0837 102.084 20.976Z" fill="black"/>
<path d="M116.745 28.5619L123.351 15.0944L124.805 15.8075L124.041 17.3634L124.22 17.451C124.414 17.3351 124.673 17.1934 124.998 17.0257C125.329 16.8559 125.731 16.7575 126.203 16.7306C126.681 16.7015 127.239 16.8434 127.877 17.1561C128.702 17.5606 129.327 18.1233 129.754 18.8442C130.181 19.5652 130.386 20.3905 130.367 21.3203C130.349 22.25 130.088 23.2293 129.583 24.258C129.074 25.2953 128.457 26.1079 127.731 26.6958C127.007 27.2794 126.23 27.6263 125.401 27.7364C124.574 27.8423 123.752 27.695 122.936 27.2947C122.307 26.9861 121.854 26.6349 121.578 26.2411C121.304 25.8429 121.13 25.4599 121.058 25.092C120.987 24.7199 120.94 24.4174 120.917 24.1847L120.79 24.1221L118.25 29.3L116.745 28.5619ZM122.428 20.7173C122.065 21.457 121.854 22.1627 121.793 22.8344C121.735 23.5019 121.836 24.0972 122.096 24.6203C122.358 25.1392 122.791 25.5467 123.395 25.8428C124.024 26.1514 124.63 26.2431 125.214 26.1179C125.804 25.9906 126.344 25.6963 126.833 25.2352C127.33 24.7719 127.749 24.1916 128.091 23.4944C128.428 22.8058 128.626 22.133 128.685 21.4761C128.75 20.817 128.649 20.2217 128.382 19.6901C128.122 19.1564 127.673 18.7331 127.035 18.4204C126.423 18.1202 125.833 18.0231 125.264 18.1291C124.697 18.2308 124.172 18.5059 123.688 18.9543C123.207 19.3984 122.787 19.9861 122.428 20.7173Z" fill="black"/>
<path d="M130.065 30.9045L136.222 21.8986L137.559 22.8125L136.629 24.1727L136.723 24.2368C137.191 23.9035 137.736 23.745 138.355 23.7614C138.975 23.7778 139.555 23.9704 140.094 24.3391C140.196 24.4086 140.321 24.4974 140.471 24.6055C140.621 24.7136 140.732 24.7983 140.805 24.8596L139.843 26.2668C139.804 26.223 139.709 26.1319 139.557 25.9935C139.411 25.854 139.247 25.7214 139.063 25.5958C138.625 25.2965 138.171 25.1211 137.702 25.0697C137.239 25.017 136.798 25.0828 136.38 25.2671C135.968 25.4501 135.623 25.7448 135.345 26.1514L131.449 31.8504L130.065 30.9045Z" fill="black"/>
<path d="M139.421 38.2564C138.69 37.5964 138.205 36.8433 137.968 35.9972C137.734 35.1542 137.745 34.2804 138 33.3756C138.26 32.474 138.767 31.6051 139.522 30.7688C140.284 29.9254 141.101 29.3273 141.975 28.9744C142.852 28.6246 143.722 28.5234 144.585 28.6705C145.45 28.8209 146.249 29.2261 146.98 29.8862C147.711 30.5462 148.193 31.2978 148.427 32.1407C148.665 32.9868 148.652 33.8624 148.39 34.7675C148.131 35.6758 147.621 36.5516 146.859 37.3949C146.104 38.2313 145.289 38.8225 144.415 39.1688C143.545 39.5182 142.676 39.6177 141.81 39.4673C140.948 39.3201 140.151 38.9165 139.421 38.2564ZM140.43 37.139C140.985 37.6404 141.57 37.9106 142.186 37.9497C142.801 37.9888 143.404 37.8541 143.996 37.5458C144.587 37.2374 145.127 36.8127 145.615 36.2715C146.104 35.7304 146.473 35.1484 146.723 34.5255C146.973 33.9027 147.049 33.2853 146.951 32.6735C146.852 32.0616 146.526 31.505 145.971 31.0036C145.415 30.5022 144.828 30.2337 144.21 30.1982C143.591 30.1626 142.985 30.3008 142.39 30.6126C141.796 30.9245 141.255 31.351 140.766 31.8922C140.277 32.4333 139.91 33.0136 139.663 33.6329C139.416 34.2522 139.343 34.8661 139.445 35.4744C139.546 36.0827 139.874 36.6376 140.43 37.139Z" fill="black"/>
<path d="M156.666 40.2689L155.577 41.1819L151.797 36.6771L152.885 35.7641L156.666 40.2689ZM145.661 44.1257L155.171 36.1455C155.65 35.7437 156.143 35.5214 156.651 35.4784C157.159 35.4355 157.643 35.5266 158.104 35.7517C158.565 35.9769 158.963 36.2889 159.298 36.6879C159.563 37.0035 159.753 37.2823 159.87 37.5244C159.987 37.7665 160.064 37.9548 160.103 38.0892L158.682 38.6506C158.649 38.567 158.601 38.4535 158.536 38.3101C158.474 38.1703 158.366 38.0078 158.21 37.8229C157.854 37.3985 157.49 37.1818 157.118 37.1728C156.749 37.1674 156.357 37.3381 155.944 37.6851L146.738 45.4097L145.661 44.1257Z" fill="black"/>
<path d="M150.128 49.7078L159.066 43.4528L160.027 44.826L151.089 51.081L150.128 49.7078ZM161.044 43.1085C160.857 42.8409 160.787 42.5462 160.833 42.2247C160.882 41.907 161.035 41.6586 161.291 41.4794C161.547 41.3002 161.833 41.2419 162.148 41.3044C162.466 41.3707 162.719 41.5377 162.906 41.8054C163.094 42.0731 163.163 42.3657 163.113 42.6834C163.067 43.005 162.915 43.2554 162.659 43.4345C162.403 43.6137 162.116 43.6701 161.798 43.6038C161.483 43.5413 161.232 43.3762 161.044 43.1085Z" fill="black"/>
<path d="M166.293 47.8615L153.824 55.3516L152.961 53.9147L165.43 46.4246L166.293 47.8615Z" fill="black"/>
<path d="M156.995 61.8777C156.561 60.9206 156.397 59.9991 156.504 59.1131C156.618 58.2295 156.971 57.4269 157.564 56.7053C158.163 55.9861 158.971 55.3955 159.988 54.9335C161.006 54.4715 161.987 54.2497 162.931 54.2681C163.882 54.2888 164.727 54.5344 165.465 55.0049C166.211 55.4778 166.787 56.1626 167.194 57.0593C167.429 57.5767 167.575 58.1267 167.631 58.7094C167.688 59.2921 167.616 59.8785 167.416 60.4686C167.22 61.0567 166.861 61.6175 166.339 62.151C165.817 62.6845 165.092 63.1617 164.166 63.5826L163.519 63.8763L160.042 56.2196L161.361 55.6206L164.133 61.7252C164.694 61.4707 165.143 61.1315 165.481 60.7077C165.821 60.2881 166.025 59.8158 166.093 59.2907C166.164 58.77 166.074 58.2337 165.823 57.6819C165.547 57.074 165.157 56.6165 164.654 56.3095C164.157 56.0049 163.615 55.8426 163.029 55.8228C162.443 55.803 161.876 55.9174 161.328 56.166L160.449 56.5654C159.699 56.906 159.121 57.3241 158.717 57.8196C158.319 58.3175 158.09 58.861 158.03 59.4499C157.974 60.0369 158.086 60.6386 158.366 61.2551C158.548 61.6561 158.769 61.9928 159.028 62.2652C159.293 62.54 159.593 62.7441 159.93 62.8774C160.27 63.0088 160.642 63.0609 161.046 63.0336L161.301 64.696C160.731 64.7679 160.173 64.7067 159.627 64.5125C159.085 64.3164 158.587 63.9969 158.131 63.5539C157.679 63.1089 157.301 62.5502 156.995 61.8777Z" fill="black"/>
<path d="M158.602 78.4871L173.502 76.7565L173.689 78.365L171.967 78.565L171.99 78.7625C172.193 78.8629 172.452 79.0044 172.769 79.1869C173.091 79.3735 173.391 79.658 173.669 80.0404C173.952 80.427 174.135 80.973 174.217 81.6785C174.323 82.591 174.188 83.4217 173.812 84.1708C173.437 84.9198 172.854 85.5382 172.062 86.0258C171.27 86.5134 170.305 86.8233 169.167 86.9555C168.019 87.0888 167.002 87.0091 166.114 86.7165C165.232 86.4234 164.52 85.9579 163.979 85.3201C163.442 84.6817 163.122 83.911 163.017 83.008C162.936 82.3119 162.986 81.7412 163.168 81.2958C163.355 80.8499 163.583 80.4969 163.853 80.2367C164.128 79.976 164.357 79.773 164.54 79.6278L164.524 79.4867L158.795 80.1521L158.602 78.4871ZM168.274 79.0226C167.456 79.1176 166.747 79.3214 166.15 79.6339C165.557 79.9459 165.111 80.3528 164.812 80.8547C164.517 81.356 164.409 81.9406 164.486 82.6085C164.567 83.3046 164.818 83.8641 165.239 84.2871C165.665 84.7143 166.205 85.0091 166.857 85.1716C167.515 85.3383 168.23 85.3769 169.002 85.2873C169.763 85.1988 170.436 85.0014 171.021 84.6953C171.61 84.3932 172.056 83.9863 172.359 83.4745C172.667 82.9668 172.78 82.3602 172.698 81.6547C172.619 80.9774 172.382 80.4283 171.985 80.0073C171.593 79.5857 171.077 79.2928 170.438 79.1287C169.804 78.964 169.083 78.9286 168.274 79.0226Z" fill="black"/>
</svg>
