<svg width="132" height="132" viewBox="0 0 132 132" fill="none" xmlns="http://www.w3.org/2000/svg">
<path d="M48.2548 92.4344C57.0182 91.9413 65.375 88.5966 72.0366 82.9162C78.6982 77.2357 83.2945 69.535 85.1168 61.0015C86.9392 52.4679 85.8863 43.5755 82.1205 35.6956C78.3547 27.8156 72.0853 21.3857 64.2789 17.3974C56.4725 13.4091 47.5627 12.0839 38.9235 13.6262C30.2844 15.1684 22.3956 19.4925 16.4737 25.9316C10.5519 32.3706 6.92579 40.5671 6.15468 49.257C5.38357 57.9469 7.51025 66.6476 12.2068 74.0174L9.38052 82.4441V82.4574C8.29401 85.6837 7.75409 87.2935 8.13403 88.3733C8.46732 89.3074 9.22054 90.0494 10.1604 90.3807C11.2402 90.7649 12.8533 90.2283 16.0795 89.1617L16.1262 89.1485L24.6049 86.3395C31.6504 90.7851 39.9236 92.9172 48.2548 92.4344ZM48.2548 92.4344C50.252 98.074 53.5029 103.194 57.7657 107.412C62.0285 111.631 67.1934 114.84 72.8763 116.8C78.5593 118.761 84.6139 119.423 90.5898 118.737C96.5657 118.052 102.309 116.035 107.393 112.839L115.872 115.648H115.892C119.138 116.728 120.757 117.264 121.844 116.88C122.308 116.714 122.729 116.448 123.077 116.101C123.426 115.754 123.692 115.334 123.857 114.873C124.244 113.799 123.704 112.183 122.617 108.943L119.791 100.517L120.737 98.9598C124.211 92.9139 126.025 86.0673 126 79.1053C125.974 72.1433 124.109 65.3101 120.591 59.2896C117.073 53.2691 112.026 48.2725 105.955 44.7998C99.8835 41.3272 93.0009 39.5003 85.9959 39.502L84.4961 39.5285L83.7429 39.5683" stroke="black" stroke-width="5" stroke-linecap="round" stroke-linejoin="round"/>
</svg>
