<svg width="16" height="16" viewBox="0 0 16 16" fill="none" xmlns="http://www.w3.org/2000/svg">
<path d="M12.302 9.70333C12.188 9.62933 11.8633 9.194 10.9647 7.04867C10.9157 6.93016 10.863 6.81321 10.8067 6.698L10.624 6.25534L9.04933 2.454H5.9L7.47467 6.25534L9.04933 10.0593L10.5033 13.5707C10.5132 13.5945 10.53 13.6149 10.5515 13.6292C10.5729 13.6436 10.5982 13.6512 10.624 13.6512C10.6498 13.6512 10.6751 13.6436 10.6965 13.6292C10.718 13.6149 10.7348 13.5945 10.7447 13.5707L12.3267 9.78267C12.3321 9.7686 12.3327 9.7531 12.3282 9.73869C12.3237 9.72428 12.3145 9.71181 12.302 9.70333ZM6.402 9.70333C6.288 9.62933 5.96333 9.194 5.06467 7.04867C5.01598 6.93035 4.96351 6.81362 4.90733 6.69867L4.72333 6.25534L3.15 2.454H0L1.57467 6.25534L3.14933 10.0593L4.60333 13.5707C4.61324 13.5945 4.62999 13.6149 4.65146 13.6292C4.67294 13.6436 4.69818 13.6512 4.724 13.6512C4.74982 13.6512 4.77506 13.6436 4.79654 13.6292C4.81801 13.6149 4.83476 13.5945 4.84467 13.5707L6.42733 9.78267C6.433 9.76856 6.43357 9.75292 6.42895 9.73844C6.42432 9.72396 6.41479 9.71155 6.402 9.70333ZM16 4.25C16.0001 4.49966 15.951 4.74688 15.8555 4.97756C15.76 5.20824 15.62 5.41784 15.4435 5.59441C15.267 5.77097 15.0575 5.91103 14.8268 6.00659C14.5962 6.10215 14.349 6.15134 14.0993 6.15134C13.8496 6.15142 13.6023 6.1023 13.3716 6.00678C13.1409 5.91126 12.9313 5.77122 12.7547 5.59464C12.5781 5.41807 12.4381 5.20843 12.3426 4.97771C12.247 4.74699 12.1979 4.49971 12.198 4.25C12.198 4.00035 12.2472 3.75314 12.3427 3.52249C12.4383 3.29185 12.5784 3.08229 12.7549 2.90579C12.9315 2.72929 13.1411 2.5893 13.3718 2.49382C13.6025 2.39834 13.8497 2.34925 14.0993 2.34933C14.6034 2.34933 15.0869 2.54958 15.4433 2.90603C15.7998 3.26247 16 3.74591 16 4.25Z" fill="black"/>
</svg>
