<svg width="132" height="132" viewBox="0 0 132 132" fill="none" xmlns="http://www.w3.org/2000/svg">
<path d="M8.25 28.875C8.25 23.4049 10.423 18.1589 14.2909 14.2909C18.1589 10.423 23.4049 8.25 28.875 8.25H86.625C92.0951 8.25 97.3411 10.423 101.209 14.2909C105.077 18.1589 107.25 23.4049 107.25 28.875V41.4975C104.51 41.1826 101.743 41.1715 99 41.4645V41.25H16.5V86.625C16.5 89.9071 17.8038 93.0547 20.1246 95.3755C22.4453 97.6962 25.5929 99 28.875 99H53.2455L47.3055 104.94C46.5843 105.66 45.917 106.432 45.309 107.25H28.875C23.4049 107.25 18.1589 105.077 14.2909 101.209C10.423 97.3411 8.25 92.0951 8.25 86.625V28.875ZM73.6807 55.473L68.9205 50.7045C68.537 50.321 68.0817 50.0167 67.5806 49.8092C67.0795 49.6016 66.5424 49.4948 66 49.4948C65.4576 49.4948 64.9205 49.6016 64.4194 49.8092C63.9183 50.0167 63.463 50.321 63.0795 50.7045C62.696 51.088 62.3917 51.5433 62.1842 52.0444C61.9766 52.5455 61.8698 53.0826 61.8698 53.625C61.8698 54.1674 61.9766 54.7045 62.1842 55.2056C62.3917 55.7067 62.696 56.162 63.0795 56.5455L69.2257 62.6835C70.4137 60.159 71.8987 57.7335 73.6807 55.473ZM16.5 33H99V28.875C99 25.5929 97.6962 22.4453 95.3755 20.1246C93.0547 17.8038 89.9071 16.5 86.625 16.5H28.875C25.5929 16.5 22.4453 17.8038 20.1246 20.1246C17.8038 22.4453 16.5 25.5929 16.5 28.875V33ZM52.4205 56.5455C52.804 56.162 53.1083 55.7067 53.3158 55.2056C53.5234 54.7045 53.6302 54.1674 53.6302 53.625C53.6302 53.0826 53.5234 52.5455 53.3158 52.0444C53.1083 51.5433 52.804 51.088 52.4205 50.7045C52.037 50.321 51.5817 50.0167 51.0806 49.8092C50.5795 49.6016 50.0424 49.4948 49.5 49.4948C48.9576 49.4948 48.4205 49.6016 47.9194 49.8092C47.4183 50.0167 46.963 50.321 46.5795 50.7045L30.0795 67.2045C29.6954 67.5877 29.3906 68.0429 29.1826 68.544C28.9747 69.0452 28.8676 69.5824 28.8676 70.125C28.8676 70.6676 28.9747 71.2048 29.1826 71.706C29.3906 72.2071 29.6954 72.6623 30.0795 73.0455L46.5795 89.5455C47.3541 90.3201 48.4046 90.7552 49.5 90.7552C50.5954 90.7552 51.6459 90.3201 52.4205 89.5455C53.1951 88.7709 53.6302 87.7204 53.6302 86.625C53.6302 85.5296 53.1951 84.4791 52.4205 83.7045L38.8327 70.125L52.4205 56.5455ZM106.359 49.698C109.379 50.0445 110.245 53.658 108.091 55.8195L100.048 63.8633C98.8928 65.0182 97.9767 66.3892 97.3517 67.8982C96.7267 69.4072 96.405 71.0245 96.405 72.6578C96.405 74.291 96.7267 75.9083 97.3517 77.4173C97.9767 78.9263 98.8928 80.2973 100.048 81.4522C101.203 82.6072 102.574 83.5233 104.083 84.1483C105.592 84.7733 107.209 85.095 108.842 85.095C110.476 85.095 112.093 84.7733 113.602 84.1483C115.111 83.5233 116.482 82.6072 117.637 81.4522L125.681 73.4085C127.834 71.2552 131.455 72.1215 131.802 75.141C132.377 80.044 131.691 85.0125 129.81 89.5767C127.93 94.1409 124.916 98.15 121.054 101.225C117.192 104.3 112.61 106.339 107.74 107.149C102.87 107.959 97.8746 107.514 93.225 105.856L70.7355 128.354C69.5806 129.508 68.2095 130.425 66.7006 131.05C65.1916 131.675 63.5743 131.996 61.941 131.996C60.3077 131.996 58.6904 131.675 57.1815 131.05C55.6725 130.425 54.3014 129.508 53.1465 128.354C51.9916 127.199 51.0755 125.828 50.4504 124.319C49.8254 122.81 49.5037 121.192 49.5037 119.559C49.5037 117.926 49.8254 116.308 50.4504 114.799C51.0755 113.29 51.9916 111.919 53.1465 110.764L75.636 88.275C73.9771 83.6247 73.5319 78.628 74.3426 73.7577C75.1533 68.8874 77.193 64.3043 80.2689 60.4422C83.3448 56.58 87.3551 53.5663 91.9204 51.6862C96.4858 49.8062 101.455 49.1218 106.359 49.698Z" fill="black"/>
</svg>
