<svg width="68" height="68" viewBox="0 0 68 68" fill="none" xmlns="http://www.w3.org/2000/svg">
<path d="M58.9573 34.4895L66.1906 35.2456L65.9266 37.7745C65.874 38.2784 65.7435 38.6849 65.5351 38.994C65.329 39.3033 65.0717 39.5227 64.763 39.6523C64.4567 39.7822 64.1269 39.8286 63.7737 39.7917C63.4629 39.7592 63.212 39.6771 63.0211 39.5452C62.8299 39.4157 62.6848 39.2554 62.5857 39.0641C62.4864 38.8752 62.4194 38.6742 62.3845 38.4611L62.3138 38.4537C62.2766 38.6736 62.1757 38.8879 62.011 39.0969C61.8464 39.3058 61.6244 39.4718 61.3449 39.5949C61.0655 39.7181 60.735 39.7597 60.3536 39.7198C59.991 39.6819 59.6735 39.5654 59.4011 39.3703C59.1287 39.1752 58.9263 38.891 58.7938 38.5177C58.6614 38.1445 58.625 37.6729 58.6845 37.1031L58.9573 34.4895ZM59.6429 35.4466L59.4615 37.1843C59.4017 37.7565 59.47 38.1743 59.6663 38.4376C59.8646 38.7035 60.1227 38.853 60.4406 38.8863C60.6855 38.9119 60.918 38.8731 61.1383 38.77C61.3609 38.6671 61.5466 38.5068 61.6955 38.2891C61.8467 38.0716 61.9388 37.8051 61.9718 37.4896L62.1576 35.7095L59.6429 35.4466ZM62.9205 35.7893L62.7509 37.414C62.7233 37.6777 62.7503 37.9209 62.8318 38.1437C62.913 38.3688 63.0413 38.5535 63.2166 38.698C63.3917 38.8449 63.6064 38.9316 63.8607 38.9582C64.1786 38.9914 64.4598 38.9089 64.7042 38.7107C64.951 38.5128 65.0995 38.1736 65.1496 37.6933L65.3222 36.0403L62.9205 35.7893Z" fill="black"/>
<path d="M57.6683 41.2899C57.7724 40.9603 57.929 40.6809 58.1381 40.4515C58.3494 40.2229 58.5985 40.0671 58.8854 39.984C59.1746 39.9017 59.4885 39.9141 59.827 40.0213C60.125 40.1156 60.3479 40.2507 60.4959 40.4266C60.6462 40.6033 60.7433 40.8066 60.7873 41.0366C60.8314 41.2665 60.8419 41.5082 60.8189 41.7617C60.7974 42.0181 60.7644 42.2721 60.7196 42.5236C60.6604 42.8525 60.6099 43.1184 60.5681 43.3212C60.5279 43.527 60.5195 43.6832 60.5429 43.79C60.5656 43.8989 60.6412 43.9738 60.7699 44.0145L60.797 44.0231C61.131 44.1288 61.4195 44.1195 61.6624 43.9952C61.9045 43.8732 62.0837 43.6282 62.2 43.2602C62.3206 42.8787 62.3316 42.5532 62.233 42.2836C62.1345 42.0141 62.0043 41.8053 61.8425 41.6572L62.3531 40.9845C62.6263 41.2199 62.8152 41.4783 62.9199 41.7598C63.0262 42.0442 63.0719 42.3318 63.057 42.6226C63.0436 42.9163 62.9955 43.1941 62.9128 43.456C62.86 43.623 62.779 43.8085 62.6699 44.0123C62.5624 44.2192 62.4155 44.4049 62.2294 44.5695C62.0426 44.7363 61.8048 44.8485 61.516 44.9061C61.2272 44.9637 60.8762 44.9272 60.4632 44.7965L57.0369 43.7123L57.2894 42.9132L57.9936 43.136L58.0065 43.0954C57.9107 43.0055 57.8185 42.877 57.7298 42.7099C57.6411 42.5427 57.5848 42.3399 57.5608 42.1014C57.5369 41.8629 57.5727 41.5924 57.6683 41.2899ZM58.3475 41.6389C58.2477 41.955 58.2256 42.241 58.2812 42.497C58.3362 42.7552 58.4444 42.9707 58.6058 43.1435C58.7665 43.3185 58.9552 43.4403 59.1718 43.5088L59.9032 43.7402C59.8732 43.6935 59.8595 43.6072 59.862 43.4814C59.8661 43.3585 59.8793 43.2187 59.9015 43.0618C59.9253 42.908 59.9503 42.7582 59.9765 42.6125C60.0042 42.4698 60.026 42.3538 60.0418 42.2644C60.0803 42.0482 60.0977 41.8401 60.0938 41.6402C60.0915 41.4433 60.048 41.2707 59.9633 41.1222C59.8802 40.9767 59.737 40.8718 59.5339 40.8075C59.2563 40.7197 59.0139 40.756 58.8068 40.9164C58.6012 41.0798 58.4481 41.3206 58.3475 41.6389Z" fill="black"/>
<path d="M55.6542 46.0811C55.8961 45.6306 56.2107 45.2998 56.5981 45.0888C56.9855 44.8777 57.4129 44.7849 57.8802 44.8104C58.3475 44.8358 58.8209 44.9775 59.3005 45.2353C59.7885 45.4977 60.1709 45.8188 60.4478 46.1989C60.7257 46.5821 60.8832 46.992 60.9202 47.4285C60.9582 47.8683 60.8607 48.3051 60.6278 48.7389C60.4464 49.0768 60.2203 49.3477 59.9496 49.5516C59.6789 49.7555 59.3845 49.8835 59.0664 49.9355C58.7482 49.9876 58.4278 49.9537 58.1051 49.834L58.5016 49.0956C58.7508 49.157 59.0119 49.1361 59.2849 49.033C59.5589 48.933 59.7833 48.7203 59.958 48.3949C60.1125 48.1071 60.173 47.8144 60.1393 47.5167C60.1066 47.2223 59.9872 46.9417 59.7811 46.675C59.5759 46.4115 59.2919 46.1822 58.9291 45.9872C58.558 45.7876 58.2034 45.6723 57.8654 45.6411C57.5264 45.612 57.223 45.664 56.9555 45.797C56.6868 45.932 56.4741 46.1456 56.3173 46.4376C56.2142 46.6295 56.1541 46.8216 56.1368 47.0139C56.1196 47.2062 56.1444 47.3902 56.2112 47.566C56.2781 47.7417 56.3868 47.8996 56.5373 48.0396L56.1409 48.778C55.8797 48.5838 55.6797 48.3432 55.5409 48.0563C55.403 47.7725 55.3396 47.4602 55.3506 47.1194C55.3626 46.7818 55.4638 46.4357 55.6542 46.0811Z" fill="black"/>
<path d="M55.6161 50.0563L56.4334 50.6945L56.3268 50.8275L56.7276 54.21L56.0788 55.0189L55.665 51.4255L55.7095 51.3701L55.6161 50.0563ZM54.5544 48.2016L60.2248 52.7556L59.7005 53.4093L54.03 48.8554L54.5544 48.2016ZM52.3859 50.9053L55.8232 50.9332L55.904 51.7632L51.7193 51.7364L52.3859 50.9053Z" fill="black"/>
<path d="M51.1936 59.1177L50.7635 58.5525L53.0119 56.8394L53.442 57.4046L51.1936 59.1177ZM53.578 58.9438L52.9114 59.4518L49.7632 55.3145C49.6198 55.1261 49.485 55.0056 49.3587 54.953C49.232 54.9038 49.1131 54.8961 49.0021 54.9301C48.8906 54.9674 48.786 55.0233 48.688 55.0979C48.6146 55.1539 48.5572 55.2036 48.5159 55.247C48.476 55.2923 48.444 55.3285 48.4201 55.3557L47.8286 54.8599C47.8609 54.8085 47.9111 54.7435 47.9792 54.6648C48.0458 54.5843 48.1413 54.4967 48.2655 54.402C48.4538 54.2585 48.6692 54.1584 48.9116 54.1016C49.1522 54.0464 49.3948 54.0564 49.6396 54.1318C49.8825 54.2086 50.1 54.3733 50.2922 54.6257L53.578 58.9438Z" fill="black"/>
<path d="M45.4067 56.0835C45.8396 55.8487 46.2752 55.7458 46.7135 55.7746C47.1498 55.8046 47.5599 55.9552 47.9437 56.2265C48.3255 56.4988 48.6505 56.8827 48.9189 57.3781C49.1895 57.8777 49.3352 58.3629 49.356 58.8337C49.3747 59.3057 49.2776 59.7327 49.0646 60.1149C48.8495 60.4982 48.5255 60.8072 48.0926 61.042C47.6598 61.2768 47.2252 61.3792 46.789 61.3492C46.3506 61.3203 45.94 61.1686 45.5571 60.8942C45.1721 60.6209 44.8443 60.2345 44.5737 59.7349C44.3054 59.2395 44.1624 58.7568 44.1448 58.287C44.1251 57.8182 44.2229 57.3922 44.4379 57.0089C44.651 56.6268 44.9739 56.3183 45.4067 56.0835ZM45.7653 56.7455C45.4365 56.9238 45.2116 57.1549 45.0907 57.4386C44.9698 57.7223 44.9328 58.0293 44.9796 58.3593C45.0265 58.6894 45.1368 59.0148 45.3104 59.3353C45.4841 59.6559 45.6968 59.927 45.9488 60.1485C46.2007 60.3701 46.4791 60.5086 46.7838 60.5642C47.0885 60.6198 47.4053 60.5584 47.7341 60.38C48.0629 60.2017 48.2872 59.9696 48.407 59.6838C48.5268 59.3979 48.5627 59.089 48.5147 58.7568C48.4667 58.4246 48.3559 58.0982 48.1822 57.7777C48.0086 57.4571 47.7963 57.1871 47.5455 56.9676C47.2947 56.7481 47.0175 56.6117 46.7139 56.5582C46.4103 56.5047 46.0941 56.5671 45.7653 56.7455Z" fill="black"/>
<path d="M42.7902 64.3305L42.9482 65.0957L37.6066 66.2001L37.4487 65.4349L39.6882 64.9719L38.3755 58.6145L39.238 58.4362L40.5507 64.7936L42.7902 64.3305Z" fill="black"/>
<path d="M34.3386 66.5316C33.8462 66.5316 33.4141 66.4144 33.0424 66.18C32.6731 65.9457 32.3843 65.6178 32.176 65.1964C31.97 64.775 31.867 64.2826 31.867 63.7191C31.867 63.1509 31.97 62.6549 32.176 62.2312C32.3843 61.8074 32.6731 61.4783 33.0424 61.244C33.4141 61.0096 33.8462 60.8924 34.3386 60.8924C34.831 60.8924 35.2619 61.0096 35.6312 61.244C36.0029 61.4783 36.2917 61.8074 36.4977 62.2312C36.706 62.6549 36.8102 63.1509 36.8102 63.7191C36.8102 64.2826 36.706 64.775 36.4977 65.1964C36.2917 65.6178 36.0029 65.9457 35.6312 66.18C35.2619 66.4144 34.831 66.5316 34.3386 66.5316ZM34.3386 65.7788C34.7127 65.7788 35.0204 65.6829 35.2619 65.4911C35.5034 65.2994 35.6821 65.0472 35.7981 64.7347C35.9141 64.4222 35.9721 64.0837 35.9721 63.7191C35.9721 63.3545 35.9141 63.0148 35.7981 62.6999C35.6821 62.3851 35.5034 62.1306 35.2619 61.9364C35.0204 61.7423 34.7127 61.6452 34.3386 61.6452C33.9646 61.6452 33.6568 61.7423 33.4153 61.9364C33.1738 62.1306 32.9951 62.3851 32.8791 62.6999C32.7631 63.0148 32.7051 63.3545 32.7051 63.7191C32.7051 64.0837 32.7631 64.4222 32.8791 64.7347C32.9951 65.0472 33.1738 65.2994 33.4153 65.4911C33.6568 65.6829 33.9646 65.7788 34.3386 65.7788Z" fill="black"/>
<path d="M31.6004 56.9511L30.1118 64.3018L29.3183 64.1409L29.4903 63.2917L29.3928 63.2719C29.3137 63.3525 29.2062 63.4539 29.0703 63.5761C28.9317 63.7002 28.7499 63.7986 28.525 63.8714C28.2974 63.946 28.0095 63.948 27.6615 63.8774C27.2114 63.7862 26.8374 63.5932 26.5396 63.2985C26.2418 63.0038 26.0384 62.6304 25.9295 62.1783C25.8205 61.7263 25.8229 61.2195 25.9366 60.658C26.0513 60.0918 26.247 59.6206 26.5236 59.2443C26.7999 58.8703 27.1315 58.6042 27.5186 58.446C27.9053 58.2901 28.3214 58.2573 28.7668 58.3476C29.1102 58.4172 29.3737 58.5298 29.5571 58.6854C29.7401 58.8433 29.8725 59.0066 29.9543 59.1754C30.0356 59.3465 30.0965 59.4869 30.1371 59.5965L30.2067 59.6107L30.779 56.7845L31.6004 56.9511ZM29.8457 61.4651C29.9274 61.0614 29.9404 60.6932 29.8846 60.3606C29.8283 60.0303 29.704 59.7551 29.5119 59.535C29.3193 59.3172 29.0582 59.1749 28.7288 59.1081C28.3854 59.0384 28.0805 59.0708 27.8142 59.2052C27.545 59.3415 27.3212 59.5521 27.1427 59.8372C26.9614 60.1242 26.8322 60.4579 26.7552 60.8384C26.679 61.2143 26.6684 61.5648 26.7234 61.89C26.7755 62.217 26.8997 62.4922 27.096 62.7156C27.2896 62.9409 27.5603 63.0888 27.9084 63.1593C28.2425 63.2271 28.5404 63.1993 28.802 63.0761C29.0633 62.9551 29.2824 62.7556 29.4595 62.4774C29.6361 62.2016 29.7649 61.8642 29.8457 61.4651Z" fill="black"/>
<path d="M21.6419 55.8624L17.5394 61.8676L15.4408 60.432C15.0227 60.1459 14.7272 59.8377 14.5544 59.5072C14.3803 59.1787 14.3096 58.8479 14.3423 58.5146C14.3737 58.1832 14.4896 57.871 14.6899 57.5777C14.8662 57.3197 15.0577 57.138 15.2643 57.0327C15.4691 56.9261 15.6791 56.8747 15.8943 56.8786C16.1077 56.8811 16.3163 56.9177 16.5203 56.9884L16.5604 56.9298C16.3847 56.7924 16.2442 56.6016 16.1386 56.3573C16.0331 56.113 15.9927 55.8386 16.0172 55.5342C16.0417 55.2297 16.1621 54.9191 16.3785 54.6024C16.5841 54.3014 16.8375 54.0774 17.1385 53.9305C17.4395 53.7837 17.7857 53.7408 18.1769 53.8019C18.5681 53.8629 19.0001 54.0552 19.473 54.3787L21.6419 55.8624ZM20.4743 56.0102L19.0323 55.0238C18.5575 54.699 18.1576 54.5603 17.8328 54.6077C17.5047 54.6557 17.2505 54.8117 17.0702 55.0756C16.9313 55.2789 16.8549 55.502 16.8409 55.7448C16.8256 55.9897 16.8783 56.2294 16.999 56.464C17.1184 56.7005 17.309 56.9083 17.5708 57.0875L19.0481 58.098L20.4743 56.0102ZM18.6154 58.7313L17.2671 57.809C17.0483 57.6593 16.8215 57.5673 16.5869 57.533C16.3503 57.4974 16.1269 57.5224 15.9165 57.6079C15.7041 57.6921 15.5258 57.8398 15.3816 58.0509C15.2013 58.3148 15.1402 58.6015 15.1984 58.9109C15.2552 59.2222 15.4829 59.5142 15.8815 59.7869L17.2532 60.7252L18.6154 58.7313Z" fill="black"/>
<path d="M16.3062 51.5071C16.5469 51.7551 16.7188 52.0256 16.8216 52.3185C16.9228 52.6131 16.9419 52.9064 16.8791 53.1986C16.8146 53.4924 16.655 53.7631 16.4004 54.0106C16.1763 54.2284 15.9518 54.3608 15.7268 54.4078C15.5002 54.4564 15.2752 54.4456 15.052 54.3753C14.8287 54.3051 14.611 54.1998 14.3988 54.0594C14.1833 53.9189 13.9754 53.7693 13.7752 53.6107C13.5138 53.4026 13.3037 53.232 13.145 53.0991C12.9829 52.9661 12.8494 52.8846 12.7443 52.8546C12.6377 52.8229 12.536 52.8541 12.4392 52.9482L12.4189 52.968C12.1676 53.2122 12.0392 53.4707 12.0335 53.7436C12.0262 54.0148 12.157 54.2889 12.4258 54.5658C12.7044 54.8529 12.9857 55.0169 13.2697 55.0578C13.5536 55.0988 13.799 55.0831 14.0059 55.0108L14.3562 55.7796C14.0196 55.9086 13.7027 55.9526 13.4054 55.9114C13.1047 55.8702 12.83 55.7741 12.5811 55.6231C12.3289 55.4721 12.1072 55.298 11.9159 55.101C11.7939 54.9753 11.669 54.816 11.5412 54.6233C11.4101 54.4304 11.3162 54.213 11.2595 53.971C11.2011 53.7273 11.215 53.4646 11.3011 53.1828C11.3872 52.901 11.5856 52.6092 11.8962 52.3072L14.4732 49.8024L15.057 50.4037L14.5273 50.9186L14.557 50.9491C14.6814 50.9074 14.8382 50.8871 15.0273 50.8881C15.2164 50.8892 15.4216 50.9357 15.6429 51.0277C15.8641 51.1197 16.0852 51.2795 16.3062 51.5071ZM15.6773 51.9401C15.4465 51.7023 15.2052 51.5472 14.9535 51.4749C14.7002 51.4009 14.4593 51.394 14.2308 51.4544C14.0007 51.513 13.8041 51.6215 13.6411 51.7799L13.0911 52.3145C13.1464 52.3103 13.2288 52.3391 13.3384 52.401C13.4446 52.4629 13.5615 52.5408 13.689 52.6347C13.8131 52.7286 13.9331 52.8216 14.0489 52.9138C14.1614 53.0058 14.2532 53.08 14.3244 53.1363C14.4964 53.2728 14.6713 53.3867 14.8491 53.4781C15.0235 53.5694 15.1961 53.6129 15.3669 53.6087C15.5343 53.6044 15.6944 53.528 15.8472 53.3795C16.056 53.1766 16.1388 52.9458 16.0957 52.6873C16.0493 52.4287 15.9098 52.1796 15.6773 51.9401Z" fill="black"/>
<path d="M13.0621 47.4882C13.3459 47.9136 13.4899 48.347 13.4941 48.7883C13.4983 49.2297 13.3794 49.6508 13.1374 50.0516C12.8954 50.4524 12.548 50.8041 12.0952 51.1066C11.6346 51.4143 11.1716 51.6012 10.7062 51.6672C10.2376 51.7326 9.802 51.6791 9.39952 51.5067C8.99376 51.3336 8.65423 51.0422 8.38094 50.6326C8.16809 50.3136 8.03531 49.9866 7.98262 49.6517C7.92993 49.3167 7.95535 48.9965 8.0589 48.6911C8.16245 48.3856 8.34282 48.1184 8.60002 47.8897L9.06514 48.5868C8.89392 48.7781 8.78968 49.0186 8.75242 49.3082C8.71187 49.5972 8.79409 49.8954 8.99906 50.2026C9.18037 50.4744 9.41022 50.6653 9.6886 50.7754C9.9637 50.8849 10.2673 50.9113 10.5994 50.8545C10.9283 50.7971 11.2639 50.654 11.6065 50.4252C11.9569 50.1911 12.2252 49.9321 12.4115 49.6482C12.5964 49.3624 12.6931 49.07 12.7015 48.7712C12.7085 48.4704 12.6201 48.1821 12.4361 47.9064C12.3153 47.7252 12.1741 47.5818 12.0125 47.4762C11.851 47.3706 11.677 47.306 11.4906 47.2825C11.3041 47.259 11.1138 47.2809 10.9195 47.348L10.4544 46.6508C10.7484 46.5114 11.0546 46.4478 11.3729 46.46C11.688 46.4716 11.9933 46.5623 12.2888 46.7322C12.581 46.9014 12.8388 47.1534 13.0621 47.4882Z" fill="black"/>
<path d="M9.56163 45.5422L8.61223 45.9595L8.54587 45.8025L5.3799 44.5511L4.97619 43.596L8.3338 44.9359L8.36145 45.0013L9.56163 45.5422ZM11.6972 45.4867L4.99961 48.3214L4.67332 47.5495L11.3709 44.7148L11.6972 45.4867ZM10.3478 42.2943L8.69189 45.3088L7.92329 44.9863L9.93298 41.313L10.3478 42.2943Z" fill="black"/>
<path d="M3.70428 37.3824L4.40609 37.2734L4.83946 40.0667L4.13765 40.1757L3.70428 37.3824ZM2.72001 39.5622L2.59152 38.7341L7.72877 37.936C7.9627 37.8996 8.13289 37.8385 8.23933 37.7524C8.34307 37.6645 8.40648 37.5636 8.42955 37.4498C8.44992 37.334 8.45067 37.2153 8.4318 37.0936C8.41764 37.0024 8.40135 36.9283 8.38292 36.8712C8.36215 36.8146 8.34553 36.7692 8.33307 36.7352L9.05085 36.4512C9.08062 36.5041 9.11383 36.5792 9.15049 36.6765C9.18949 36.7735 9.22097 36.8992 9.24493 37.0536C9.28122 37.2875 9.2665 37.5246 9.20075 37.7648C9.13464 38.0027 9.01008 38.2113 8.82708 38.3907C8.64372 38.5677 8.39531 38.6806 8.08183 38.7292L2.72001 39.5622Z" fill="black"/>
<path d="M9.1252 33.6134C9.12328 34.1058 9.00441 34.5374 8.76859 34.9082C8.53277 35.2766 8.20376 35.5642 7.78155 35.7709C7.35935 35.9753 6.86653 36.0764 6.30308 36.0742C5.73491 36.0721 5.23934 35.9672 4.81637 35.7596C4.39342 35.5497 4.06548 35.2596 3.83254 34.8894C3.59962 34.5168 3.48412 34.0843 3.48604 33.5919C3.48796 33.0994 3.60683 32.669 3.84264 32.3006C4.07846 31.9298 4.40866 31.6423 4.83323 31.4379C5.2578 31.2312 5.75418 31.1289 6.32236 31.1311C6.8858 31.1333 7.37782 31.2393 7.7984 31.4492C8.219 31.6568 8.54576 31.9469 8.77868 32.3195C9.01162 32.6897 9.12712 33.121 9.1252 33.6134ZM8.37237 33.6105C8.37383 33.2365 8.27915 32.9284 8.08833 32.6862C7.89751 32.4439 7.64608 32.2642 7.33403 32.147C7.02199 32.0298 6.68367 31.9706 6.31909 31.9692C5.95451 31.9678 5.61456 32.0245 5.29924 32.1393C4.98393 32.2541 4.72873 32.4318 4.53367 32.6726C4.3386 32.9133 4.24033 33.2207 4.23887 33.5947C4.23742 33.9688 4.33328 34.2769 4.52646 34.5191C4.71965 34.7614 4.97345 34.9411 5.28786 35.0583C5.60228 35.1755 5.94177 35.2348 6.30635 35.2362C6.67093 35.2376 7.0097 35.1809 7.32265 35.0661C7.6356 34.9512 7.88842 34.7735 8.08113 34.5327C8.27383 34.292 8.37091 33.9846 8.37237 33.6105Z" fill="black"/>
<path d="M3.11136 27.3998L2.36388 27.1726L3.94843 21.9533L4.6959 22.1805L4.03155 24.3688L10.2424 26.2569L9.98655 27.0996L3.77571 25.2115L3.11136 27.3998Z" fill="black"/>
<path d="M12.2604 21.9474C12.0259 22.3804 11.7171 22.7044 11.334 22.9195C10.9521 23.1325 10.5263 23.2301 10.0567 23.2124C9.58814 23.1926 9.10624 23.0484 8.61096 22.7797C8.11151 22.5088 7.72459 22.1818 7.45018 21.7986C7.17691 21.4134 7.02521 21.0026 6.99509 20.5661C6.9661 20.1275 7.06888 19.6917 7.30341 19.2588C7.53795 18.8258 7.84618 18.5028 8.2281 18.2898C8.61116 18.0747 9.03798 17.9777 9.50858 17.9986C9.98031 18.0175 10.4659 18.1623 10.9653 18.4332C11.4606 18.7019 11.8439 19.0282 12.1151 19.4123C12.3874 19.7944 12.538 20.2047 12.567 20.6432C12.5972 21.0797 12.4949 21.5144 12.2604 21.9474ZM11.5986 21.5885C11.7768 21.2596 11.8391 20.9432 11.7856 20.6395C11.732 20.3357 11.5955 20.0584 11.3761 19.8074C11.1566 19.5564 10.8867 19.344 10.5662 19.1701C10.2457 18.9963 9.91945 18.8853 9.58743 18.8372C9.2554 18.7891 8.94656 18.8249 8.6609 18.9447C8.37524 19.0645 8.14333 19.2888 7.96518 19.6177C7.78702 19.9466 7.72575 20.2635 7.78139 20.5684C7.83702 20.8733 7.97559 21.1518 8.19712 21.4039C8.41864 21.656 8.68964 21.869 9.01012 22.0428C9.3306 22.2166 9.65581 22.327 9.98575 22.374C10.3157 22.421 10.6225 22.3841 10.906 22.2632C11.1896 22.1423 11.4205 21.9174 11.5986 21.5885Z" fill="black"/>
<path d="M14.8298 21.2222L9.06862 16.4202L9.58661 15.7979L10.2522 16.3527L10.3158 16.2763C10.2825 16.1684 10.2442 16.0256 10.2012 15.8479C10.1578 15.6669 10.1574 15.4601 10.2001 15.2275C10.2424 14.9916 10.3772 14.7372 10.6044 14.4642C10.8982 14.1113 11.2454 13.8736 11.646 13.7514C12.0465 13.6291 12.4715 13.6274 12.9209 13.7461C13.3703 13.8649 13.8151 14.1077 14.2552 14.4745C14.6989 14.8444 15.0207 15.2405 15.2205 15.6628C15.4185 16.0837 15.4953 16.5021 15.4508 16.9181C15.4046 17.3326 15.2361 17.7145 14.9453 18.0639C14.7211 18.3332 14.4971 18.5117 14.2732 18.5993C14.0474 18.6855 13.8409 18.7245 13.6537 18.7163C13.4646 18.7066 13.3122 18.6936 13.1964 18.6773L13.151 18.7319L15.366 20.5781L14.8298 21.2222ZM11.6907 17.5332C12.0071 17.7969 12.3249 17.9832 12.644 18.092C12.9613 18.1993 13.2623 18.2206 13.5472 18.156C13.8302 18.0898 14.0792 17.9276 14.2943 17.6692C14.5184 17.3999 14.6345 17.1161 14.6426 16.8177C14.6504 16.516 14.5713 16.2189 14.4051 15.9263C14.2387 15.6304 14.0063 15.3582 13.7081 15.1096C13.4135 14.864 13.1101 14.6882 12.798 14.5821C12.4855 14.4727 12.1845 14.4514 11.8948 14.5182C11.6048 14.5816 11.3463 14.7497 11.1191 15.0227C10.901 15.2847 10.7841 15.5602 10.7684 15.8491C10.7509 16.1366 10.8225 16.4243 10.9832 16.7124C11.1421 16.9989 11.3779 17.2725 11.6907 17.5332Z" fill="black"/>
<path d="M20.4559 12.9341L17.1107 6.47636L19.3678 5.30564C19.8175 5.07237 20.2287 4.95775 20.6014 4.96179C20.973 4.96373 21.2978 5.05797 21.5757 5.24451C21.8526 5.42895 22.0727 5.67883 22.236 5.99415C22.3797 6.27163 22.449 6.52638 22.4439 6.75839C22.4409 6.98932 22.3867 7.19876 22.2815 7.38671C22.1783 7.57357 22.0473 7.74019 21.8885 7.88656L21.9212 7.94963C22.1253 7.85978 22.3598 7.82614 22.6248 7.84871C22.8898 7.87128 23.1505 7.96541 23.4069 8.13108C23.6634 8.29676 23.8798 8.54987 24.0562 8.89041C24.2239 9.21414 24.3012 9.54344 24.288 9.8783C24.2748 10.2132 24.1488 10.5386 23.9099 10.8545C23.6709 11.1705 23.2972 11.4604 22.7886 11.7241L20.4559 12.9341ZM20.8783 11.8349L22.4293 11.0304C22.9399 10.7656 23.2513 10.4787 23.3633 10.1699C23.4763 9.85796 23.4593 9.56008 23.3123 9.27629C23.199 9.05767 23.0388 8.88475 22.8316 8.75754C22.6233 8.62822 22.3873 8.56127 22.1237 8.55668C21.8589 8.54999 21.5857 8.61968 21.3041 8.76575L19.7154 9.58983L20.8783 11.8349ZM19.3625 8.90874L20.8126 8.1566C21.048 8.03451 21.2363 7.87817 21.3775 7.68757C21.5208 7.49588 21.6046 7.28707 21.6289 7.06112C21.6553 6.83409 21.6097 6.60706 21.4921 6.38003C21.345 6.09624 21.1216 5.90678 20.8217 5.81164C20.5207 5.71441 20.1558 5.77697 19.7271 5.99934L18.2518 6.76456L19.3625 8.90874Z" fill="black"/>
<path d="M26.8426 10.2541C26.51 10.3483 26.1905 10.3712 25.884 10.3228C25.5769 10.272 25.3097 10.1497 25.0826 9.95567C24.8548 9.7594 24.6925 9.49042 24.5958 9.14873C24.5107 8.84805 24.5009 8.58752 24.5665 8.36716C24.6314 8.14453 24.7478 7.95159 24.9157 7.78837C25.0835 7.62514 25.2796 7.48344 25.504 7.36326C25.7299 7.24016 25.9602 7.12813 26.1949 7.02716C26.5022 6.89578 26.752 6.79176 26.9444 6.71509C27.1384 6.6355 27.2735 6.5566 27.3498 6.47839C27.4283 6.39952 27.4492 6.29517 27.4125 6.16533L27.4047 6.138C27.3093 5.80086 27.1429 5.56505 26.9056 5.43055C26.6705 5.2954 26.3673 5.28044 25.996 5.38567C25.6111 5.49477 25.3332 5.66459 25.1622 5.89513C24.9913 6.12567 24.8885 6.34921 24.8538 6.56573L24.0111 6.50929C24.0575 6.15164 24.1694 5.8517 24.3469 5.60947C24.526 5.36431 24.7411 5.16801 24.9922 5.02057C25.2449 4.87021 25.5033 4.75759 25.7675 4.6827C25.9361 4.63493 26.1355 4.60056 26.3657 4.57959C26.5976 4.55569 26.8335 4.5762 27.0733 4.64111C27.3154 4.70537 27.5399 4.84228 27.7469 5.05184C27.9538 5.2614 28.1163 5.57461 28.2343 5.99147L29.213 9.44937L28.4067 9.6779L28.2056 8.96719L28.1646 8.97881C28.1421 9.1082 28.0855 9.25589 27.9947 9.42188C27.9039 9.58787 27.7655 9.74645 27.5795 9.8976C27.3934 10.0488 27.1478 10.1676 26.8426 10.2541ZM26.7605 9.49485C27.0794 9.40447 27.3305 9.26565 27.5137 9.07839C27.6991 8.89049 27.8196 8.68163 27.8751 8.45181C27.9329 8.22136 27.9309 7.99679 27.869 7.77811L27.6601 7.04006C27.6375 7.09074 27.573 7.14963 27.4665 7.21672C27.3616 7.28089 27.2376 7.34681 27.0944 7.41448C26.9528 7.47922 26.8139 7.54071 26.6779 7.59896C26.5434 7.65428 26.4346 7.69991 26.3512 7.73583C26.1494 7.82256 25.9661 7.92249 25.8013 8.03564C25.6381 8.14587 25.5178 8.27716 25.4404 8.42953C25.3646 8.57897 25.3557 8.75619 25.4137 8.96121C25.493 9.24139 25.6566 9.42387 25.9045 9.50863C26.1541 9.59047 26.4394 9.58588 26.7605 9.49485Z" fill="black"/>
<path d="M32.0417 9.28219C31.5323 9.32752 31.083 9.24629 30.6938 9.0385C30.3045 8.8307 29.9921 8.52457 29.7565 8.12009C29.5209 7.71561 29.379 7.24219 29.3308 6.69982C29.2818 6.14802 29.3399 5.65204 29.5052 5.21189C29.6726 4.76917 29.9285 4.41246 30.2729 4.14176C30.6193 3.86849 31.0378 3.71003 31.5283 3.66639C31.9103 3.63239 32.2609 3.67249 32.58 3.7867C32.8992 3.90091 33.1679 4.07664 33.3863 4.3139C33.6046 4.55116 33.7525 4.83748 33.8298 5.17285L32.995 5.24714C32.9094 5.0052 32.7484 4.79849 32.5121 4.627C32.278 4.45294 31.977 4.38227 31.6091 4.41501C31.2837 4.44397 31.0059 4.55426 30.7757 4.74587C30.5477 4.93491 30.379 5.18879 30.2695 5.50752C30.1621 5.82368 30.1266 6.18692 30.1631 6.59723C30.2004 7.01698 30.2989 7.37662 30.4586 7.67614C30.6207 7.97545 30.8308 8.20037 31.089 8.3509C31.3496 8.50122 31.6449 8.56169 31.975 8.53231C32.192 8.513 32.3855 8.45775 32.5557 8.36655C32.7258 8.27535 32.8659 8.15355 32.976 8.00115C33.086 7.84875 33.1582 7.6712 33.1925 7.4685L34.0272 7.39421C34.0086 7.71911 33.9175 8.01837 33.7541 8.29199C33.5928 8.56303 33.3667 8.78755 33.0759 8.96554C32.7873 9.14097 32.4426 9.24652 32.0417 9.28219Z" fill="black"/>
<path d="M35.4385 7.12846L35.5241 6.09497L35.6937 6.11139L38.3026 3.92351L39.3348 4.02338L36.5567 6.3376L36.486 6.33075L35.4385 7.12846ZM34.4696 9.03263L35.1691 1.79363L36.0033 1.87434L35.3038 9.11335L34.4696 9.03263ZM37.9194 9.36645L36.0582 6.47488L36.708 5.95266L38.9798 9.46905L37.9194 9.36645Z" fill="black"/>
<path d="M45.4559 5.87379L45.2165 6.54247L42.5556 5.58874L42.7949 4.92006L45.4559 5.87379ZM44.0109 3.96765L44.7998 4.25042L43.0477 9.14517C42.968 9.36806 42.9404 9.54681 42.9652 9.68142C42.9929 9.81461 43.0513 9.91851 43.1403 9.99315C43.2322 10.0664 43.3362 10.1237 43.4521 10.1653C43.539 10.1964 43.6119 10.2175 43.6708 10.2286C43.7305 10.2374 43.7783 10.2445 43.8141 10.2497L43.7208 11.0161C43.6602 11.017 43.5783 11.0103 43.4753 10.996C43.3715 10.9839 43.2461 10.9515 43.099 10.8988C42.8761 10.8189 42.6749 10.6927 42.4952 10.5202C42.3178 10.3485 42.194 10.1394 42.1238 9.8929C42.0558 9.64723 42.0753 9.37506 42.1822 9.07638L44.0109 3.96765Z" fill="black"/>
<path d="M45.9793 12.3259C45.5465 12.0911 45.2225 11.782 45.0074 11.3987C44.7944 11.0166 44.6967 10.5906 44.7143 10.1207C44.7339 9.65197 44.878 9.16989 45.1463 8.67446C45.4169 8.17486 45.7437 7.78786 46.1266 7.51344C46.5116 7.24016 46.9222 7.08851 47.3584 7.05851C47.7968 7.02964 48.2324 7.13259 48.6652 7.36737C49.0981 7.60215 49.421 7.91062 49.634 8.29279C49.8491 8.67608 49.9463 9.10314 49.9255 9.57395C49.9068 10.0459 49.7621 10.5317 49.4915 11.0313C49.2231 11.5267 48.897 11.91 48.5132 12.1812C48.1314 12.4535 47.7214 12.6042 47.283 12.633C46.8468 12.663 46.4122 12.5606 45.9793 12.3259ZM46.3379 11.6639C46.6667 11.8422 46.9829 11.9047 47.2865 11.8512C47.5901 11.7977 47.8673 11.6612 48.1181 11.4418C48.3689 11.2223 48.5812 10.9523 48.7548 10.6317C48.9285 10.3111 49.0393 9.98474 49.0873 9.65258C49.1353 9.32041 49.0994 9.01141 48.9796 8.72559C48.8598 8.43976 48.6355 8.20768 48.3067 8.02934C47.9779 7.851 47.6611 7.78961 47.3564 7.84517C47.0517 7.90073 46.7733 8.03929 46.5214 8.26084C46.2694 8.48239 46.0567 8.75346 45.883 9.07403C45.7094 9.3946 45.5991 9.71993 45.5522 10.05C45.5054 10.3801 45.5424 10.687 45.6633 10.9708C45.7842 11.2545 46.0091 11.4856 46.3379 11.6639Z" fill="black"/>
<path d="M54.3756 10.0239L54.9299 9.47326L58.7715 13.3455L58.2173 13.8961L56.6066 12.2726L52.0013 16.8476L51.381 16.2224L55.9863 11.6474L54.3756 10.0239Z" fill="black"/>
<path d="M54.8748 20.7089C54.6045 20.2973 54.4653 19.8717 54.4571 19.4323C54.4502 18.9948 54.5657 18.5732 54.8034 18.1676C55.0425 17.7639 55.3974 17.4073 55.8682 17.0977C56.343 16.7856 56.8139 16.5992 57.281 16.5385C57.7495 16.4799 58.183 16.5405 58.5815 16.7204C58.9814 16.9024 59.3164 17.1992 59.5867 17.6108C59.857 18.0224 59.9956 18.4469 60.0025 18.8844C60.0106 19.3239 59.8942 19.7461 59.6532 20.1511C59.4134 20.558 59.0562 20.9176 58.5814 21.2297C58.1106 21.5393 57.642 21.7227 57.1755 21.7801C56.7104 21.8395 56.2779 21.7782 55.878 21.5962C55.4795 21.4163 55.1451 21.1205 54.8748 20.7089ZM55.5038 20.2953C55.7091 20.608 55.9582 20.8125 56.251 20.909C56.5437 21.0055 56.8525 21.0164 57.1773 20.9417C57.5021 20.867 57.8168 20.7295 58.1214 20.5292C58.4261 20.3289 58.6781 20.0938 58.8775 19.8238C59.0769 19.5539 59.1915 19.2646 59.2211 18.9561C59.2508 18.6476 59.163 18.337 58.9577 18.0244C58.7524 17.7117 58.5023 17.5078 58.2076 17.4126C57.9128 17.3174 57.6021 17.3078 57.2753 17.3838C56.9485 17.4598 56.6328 17.598 56.3282 17.7983C56.0236 17.9986 55.7725 18.233 55.5751 18.5017C55.3777 18.7704 55.2651 19.0583 55.2374 19.3655C55.2097 19.6727 55.2985 19.9826 55.5038 20.2953Z" fill="black"/>
<path d="M54.3187 23.3658L61.279 20.5721L61.5802 21.3237L60.7761 21.6464L60.8131 21.7387C60.9239 21.7606 61.0676 21.7947 61.2444 21.8411C61.4242 21.8889 61.6062 21.9867 61.7905 22.1347C61.9779 22.284 62.1376 22.5234 62.2698 22.853C62.4406 23.2793 62.4847 23.6979 62.402 24.1086C62.3192 24.5194 62.1188 24.8945 61.8009 25.2338C61.4829 25.5732 61.0581 25.8495 60.5264 26.0629C59.9903 26.2781 59.4891 26.3734 59.0227 26.3489C58.5585 26.3234 58.154 26.1924 57.8092 25.9558C57.4666 25.7183 57.2108 25.3886 57.0416 24.9667C56.9113 24.6415 56.8607 24.3595 56.89 24.1207C56.9215 23.881 56.9853 23.6807 57.0814 23.5197C57.1797 23.3577 57.2636 23.2297 57.333 23.1355L57.3065 23.0696L54.6305 24.1437L54.3187 23.3658ZM59.0545 22.3527C58.6722 22.5062 58.3574 22.6976 58.1101 22.9269C57.865 23.1554 57.7033 23.4104 57.6248 23.6918C57.5485 23.9725 57.573 24.2688 57.698 24.5808C57.8284 24.906 58.0229 25.143 58.2814 25.2918C58.5431 25.4419 58.842 25.5132 59.1783 25.5058C59.5176 25.4997 59.8674 25.4244 60.2277 25.2797C60.5837 25.1369 60.8824 24.9532 61.124 24.7287C61.3687 24.5055 61.5304 24.2505 61.6093 23.9638C61.6913 23.6783 61.6662 23.3708 61.5341 23.0412C61.4073 22.7247 61.2205 22.491 60.9738 22.34C60.7293 22.1882 60.4422 22.1146 60.1125 22.1194C59.7851 22.1233 59.4324 22.201 59.0545 22.3527Z" fill="black"/>
</svg>
